<?xml version="1.0" encoding="UTF-8" standalone="no"?>
<svg width="48px" height="48px" viewBox="0 0 48 48" version="1.1" xmlns="http://www.w3.org/2000/svg" xmlns:xlink="http://www.w3.org/1999/xlink" xmlns:sketch="http://www.bohemiancoding.com/sketch/ns">
    <title>ambulance-grey</title>
    <description>Created with Sketch (http://www.bohemiancoding.com/sketch)</description>
    <defs></defs>
    <g id="Page 1" stroke="none" stroke-width="1" fill="none" fill-rule="evenodd">
        <g id="Layer_1" fill="#444444">
            <path d="M24,1 C36.682,1 47,11.318 47,24 C47,36.682 36.682,47 24,47 C11.318,47 1,36.682 1,24 C1,11.318 11.318,1 24,1 L24,1 Z M24,0 C10.745,0 0,10.745 0,24 C0,37.254 10.745,48 24,48 C37.254,48 48,37.254 48,24 C48,10.745 37.254,0 24,0 L24,0 L24,0 Z M24,0" id="Shape"></path>
            <g id="Group" transform="translate(7.000000, 13.000000)">
                <path d="M17.85,2.445 L17.85,1.794 L18.7,1.794 L18.7,1.382 C18.7,0.651 19.34,0.059 20.132,0.059 C20.923,0.059 21.562,0.651 21.562,1.382 L21.562,1.794 L22.394,1.794 L22.394,2.445 L17.85,2.445 L17.85,2.445 Z M17.85,2.445" id="Shape"></path>
                <path d="M25.352,15.866 C23.673,15.866 22.313,17.224 22.313,18.902 C22.313,20.582 23.673,21.941 25.352,21.941 C27.03,21.941 28.387,20.582 28.387,18.902 C28.387,17.227 27.027,15.866 25.352,15.866 L25.352,15.866 Z M25.352,20.357 C24.548,20.357 23.897,19.707 23.897,18.904 C23.897,18.101 24.548,17.451 25.352,17.451 C26.153,17.451 26.803,18.099 26.803,18.904 C26.803,19.707 26.15,20.357 25.352,20.357 L25.352,20.357 Z M25.352,20.357" id="Shape"></path>
                <path d="M7.957,15.837 C6.279,15.837 4.92,17.197 4.92,18.875 C4.92,20.553 6.279,21.912 7.957,21.912 C9.635,21.912 10.994,20.553 10.994,18.875 C10.994,17.197 9.634,15.837 7.957,15.837 L7.957,15.837 Z M7.962,20.331 C7.159,20.331 6.509,19.682 6.509,18.878 C6.509,18.075 7.159,17.426 7.962,17.426 C8.766,17.426 9.415,18.075 9.415,18.878 C9.416,19.682 8.766,20.331 7.962,20.331 L7.962,20.331 Z M7.962,20.331" id="Shape"></path>
                <path d="M30.449,10.266 C31.355,10.444 31.9,10.833 32.308,13.074 L32.955,17.116 C33.188,18.43 32.444,18.911 31.518,18.911 L29.291,18.911 C29.291,16.731 27.525,14.959 25.348,14.959 C23.169,14.959 21.401,16.731 21.401,18.911 L11.889,18.911 C11.889,16.731 10.122,14.959 7.944,14.959 C5.764,14.959 3.998,16.731 3.998,18.911 L2.154,18.911 C1.506,18.911 0.999,18.42 0.999,17.784 L0.999,4.494 C0.999,3.77 1.57,3.188 2.27,3.188 L22.8,3.188 L26.154,3.188 C27.06,3.188 27.724,3.637 28.052,4.428 L30.449,10.266 L30.449,10.266 Z M22.488,4.542 L22.488,10.063 L28.872,10.063 L26.633,4.542 L22.488,4.542 L22.488,4.542 Z M16.777,9.354 L16.777,5.967 L13.39,5.967 L13.39,9.354 L10.002,9.354 L10.002,12.743 L13.39,12.743 L13.39,16.13 L16.777,16.13 L16.777,12.743 L20.166,12.743 L20.166,9.354 L16.777,9.354 L16.777,9.354 Z M16.777,9.354" id="Shape"></path>
            </g>
        </g>
    </g>
</svg>