<?xml version="1.0" encoding="UTF-8" standalone="no"?>
<svg width="90px" height="90px" viewBox="0 0 90 90" version="1.1" xmlns="http://www.w3.org/2000/svg" xmlns:xlink="http://www.w3.org/1999/xlink" xmlns:sketch="http://www.bohemiancoding.com/sketch/ns">
    <title>clock-blue</title>
    <description>Created with Sketch (http://www.bohemiancoding.com/sketch)</description>
    <defs></defs>
    <g id="Page 1" stroke="none" stroke-width="1" fill="none" fill-rule="evenodd">
        <g id="Layer_1" fill="#0088CC">
            <g id="Group">
                <path d="M48.1490526,45.2715789 L46.9957895,19.2221053 C46.9556842,18.1582105 46.0768421,16.2404211 43.9796842,16.2404211 C41.8796842,16.2404211 41.0283158,18.1582105 40.9604211,19.2221053 L39.5017895,47.748 C39.4585263,48.3922105 39.6097895,48.9966316 39.8349474,49.5486316 C39.8718947,50.5910526 40.2173684,51.5747368 40.9913684,52.2625263 L58.9361053,68.1691579 C59.7502105,68.8815789 61.7949474,69.5321053 63.4942105,67.836 C65.1843158,66.1430526 64.518,64.0983158 63.8273684,63.2842105 L48.1490526,45.2715789 L48.1490526,45.2715789 Z M48.1490526,45.2715789" id="Shape"></path>
                <path d="M45.0742105,0.315157895 C20.394,0.315157895 0.315157895,20.394 0.315157895,45.0742105 C0.315157895,69.7541053 20.394,89.8301053 45.0742105,89.8301053 C69.7541053,89.8301053 89.8301053,69.7544211 89.8301053,45.0742105 C89.8301053,20.394 69.7544211,0.315157895 45.0742105,0.315157895 L45.0742105,0.315157895 Z M45.0742105,83.2338947 C24.0328421,83.2338947 6.91136842,66.1121053 6.91136842,45.0742105 C6.91136842,24.0328421 24.0328421,6.91136842 45.0742105,6.91136842 C66.1152632,6.91136842 83.2335789,24.0328421 83.2335789,45.0742105 C83.2335789,66.1121053 66.1152632,83.2338947 45.0742105,83.2338947 L45.0742105,83.2338947 Z M45.0742105,83.2338947" id="Shape"></path>
            </g>
        </g>
    </g>
</svg>