<?xml version="1.0" encoding="UTF-8" standalone="no"?>
<svg width="18px" height="18px" viewBox="0 0 18 18" version="1.1" xmlns="http://www.w3.org/2000/svg" xmlns:xlink="http://www.w3.org/1999/xlink" xmlns:sketch="http://www.bohemiancoding.com/sketch/ns">
    <title>cross-white-18</title>
    <description>Created with Sketch (http://www.bohemiancoding.com/sketch)</description>
    <defs></defs>
    <g id="Page 1" stroke="none" stroke-width="1" fill="none" fill-rule="evenodd">
        <path d="M8.9999995,-0.004 C4.03565045,-0.004 -0.004,4.03385607 -0.004,8.996 C-0.004,13.9592684 4.03565045,17.996 8.9999995,17.996 C13.9654735,17.996 18.003999,13.9592684 18.003999,8.996 C18.003999,4.03385607 13.9654735,-0.004 8.9999995,-0.004 L8.9999995,-0.004 L8.9999995,-0.004 Z M8.9999995,16.6691634 C4.76685981,16.6691634 1.32230128,13.2272594 1.32230128,8.996 C1.32230128,4.76474063 4.76685981,1.32171214 8.9999995,1.32171214 C13.2342641,1.32171214 16.6765728,4.76474063 16.6765728,8.996 C16.6765728,13.2272594 13.2342641,16.6691634 8.9999995,16.6691634 L8.9999995,16.6691634 L8.9999995,16.6691634 Z M8.9999995,16.6691634" id="Shape" fill="#FFFFFF"></path>
        <path d="M12.7916394,12.7912842 C12.4758651,13.1070585 11.9635788,13.104348 11.6491597,12.7912842 L5.29708076,6.43920525 C4.98130641,6.12478615 4.98130641,5.61385512 5.29708076,5.29808076 L5.29708076,5.29808076 C5.61285512,4.98230641 6.12378615,4.98230641 6.43820525,5.29808076 L12.7902842,11.6488044 C13.1047033,11.9618683 13.1074138,12.4741546 12.7916394,12.7912842 L12.7916394,12.7912842 L12.7916394,12.7912842 Z M12.7916394,12.7912842" id="Shape" fill="#FFFFFF"></path>
        <path d="M5.29708076,12.7912842 C4.98130641,12.4755098 4.98401692,11.9632235 5.29708076,11.6488044 L11.6491597,5.29808076 C11.9635788,4.98230641 12.4745098,4.98230641 12.7916394,5.29808076 L12.7916394,5.29808076 C13.1074138,5.61385512 13.1074138,6.12478615 12.7916394,6.43920525 L6.43956051,12.7912842 C6.12649666,13.104348 5.61421037,13.1070585 5.29708076,12.7912842 L5.29708076,12.7912842 L5.29708076,12.7912842 Z M5.29708076,12.7912842" id="Shape" fill="#FFFFFF"></path>
    </g>
</svg>