<?xml version="1.0" encoding="UTF-8" standalone="no"?>
<svg width="32px" height="32px" viewBox="0 0 32 32" version="1.1" xmlns="http://www.w3.org/2000/svg" xmlns:xlink="http://www.w3.org/1999/xlink" xmlns:sketch="http://www.bohemiancoding.com/sketch/ns">
    <title>cross-light-32</title>
    <description>Created with Sketch (http://www.bohemiancoding.com/sketch)</description>
    <defs></defs>
    <g id="Page 1" stroke="none" stroke-width="1" fill="none" fill-rule="evenodd">
        <g id="Layer_1" fill="#CCCCCC">
            <path d="M16,0.477090909 C7.44145455,0.477090909 0.477090909,7.44145455 0.477090909,16 C0.477090909,24.5604848 7.44145455,31.5229091 16,31.5229091 C24.5604848,31.5229091 31.5229091,24.5604848 31.5229091,16 C31.5229091,7.44145455 24.5604848,0.477090909 16,0.477090909 L16,0.477090909 Z M16,29.2344242 C8.70206061,29.2344242 2.76363636,23.2979394 2.76363636,16 C2.76363636,8.70206061 8.70206061,2.76363636 16,2.76363636 C23.2998788,2.76363636 29.2344242,8.70206061 29.2344242,16 C29.2344242,23.2979394 23.2998788,29.2344242 16,29.2344242 L16,29.2344242 Z M16,29.2344242" id="Shape"></path>
            <g id="Group" transform="translate(10.181818, 10.181818)">
                <path d="M11.1806061,11.1806061 C10.7287273,11.6324848 9.99563636,11.6286061 9.54569697,11.1806061 L0.455757576,2.09066667 C0.00387878788,1.64072727 0.00387878788,0.909575758 0.455757576,0.45769697 L0.455757576,0.45769697 C0.907636364,0.00581818182 1.63878788,0.00581818182 2.08872727,0.45769697 L11.1786667,9.54569697 C11.6286061,9.99369697 11.6324848,10.7267879 11.1806061,11.1806061 L11.1806061,11.1806061 L11.1806061,11.1806061 Z M11.1806061,11.1806061" id="Shape"></path>
                <path d="M0.455757576,11.1806061 C0.00387878788,10.7287273 0.00775757576,9.99563636 0.455757576,9.54569697 L9.54569697,0.45769697 C9.99563636,0.00581818182 10.7267879,0.00581818182 11.1806061,0.45769697 L11.1806061,0.45769697 C11.6324848,0.909575758 11.6324848,1.64072727 11.1806061,2.09066667 L2.09066667,11.1806061 C1.64266667,11.6286061 0.909575758,11.6324848 0.455757576,11.1806061 L0.455757576,11.1806061 L0.455757576,11.1806061 Z M0.455757576,11.1806061" id="Shape"></path>
            </g>
        </g>
    </g>
</svg>