<?xml version="1.0" encoding="utf-8"?>
<!-- Generator: Adobe Illustrator 16.0.0, SVG Export Plug-In . SVG Version: 6.00 Build 0)  -->
<!DOCTYPE svg PUBLIC "-//W3C//DTD SVG 1.1//EN" "http://www.w3.org/Graphics/SVG/1.1/DTD/svg11.dtd">
<svg version="1.1" id="Layer_1" xmlns="http://www.w3.org/2000/svg" xmlns:xlink="http://www.w3.org/1999/xlink" x="0px" y="0px"
	 width="48px" height="58px" viewBox="0 0 48 58" enable-background="new 0 0 48 58" xml:space="preserve">
<path fill="#454545" d="M24,1c12.684,0,23,10.318,23,23c0,12.682-10.316,23-23,23C11.318,47,1,36.682,1,24C1,11.318,11.318,1,24,1
	 M24,0C10.745,0,0,10.745,0,24c0,13.254,10.745,24,24,24s24-10.746,24-24C48,10.745,37.255,0,24,0L24,0z"/>
<g>
	<g>
		<g>
			<path fill="#454545" d="M24.017,12.623c1.262,0,2.295-1.035,2.295-2.328c0-1.261-1.033-2.296-2.295-2.296
				c-1.293,0-2.295,1.035-2.295,2.296C21.722,11.588,22.724,12.623,24.017,12.623z M24.025,9.616c0.36,0,0.653,0.319,0.653,0.668
				c0,0.351-0.292,0.668-0.653,0.668c-0.394,0-0.688-0.318-0.688-0.668C23.337,9.936,23.632,9.616,24.025,9.616z"/>
			<path fill="#454545" d="M24.017,18.602c2.067,0,3.813-1.744,3.813-3.846c0-1.098-0.484-2.132-1.324-2.876
				c-0.55,0.873-1.486,1.356-2.488,1.356c-1.035,0-1.973-0.484-2.488-1.356c-0.872,0.744-1.357,1.778-1.357,2.876
				C20.171,16.857,21.915,18.602,24.017,18.602z"/>
			<path fill="#454545" d="M23.37,35.346c0,0.355,0.291,0.646,0.646,0.646c0.322,0,0.613-0.291,0.613-0.646
				c0-0.291-0.291-0.582-0.613-0.582C23.661,34.764,23.37,35.053,23.37,35.346z"/>
			<path fill="#454545" d="M27.766,19.668c0.389,0.68,0.612,1.486,0.612,2.264c0,1.616-0.938,3.134-2.392,3.845v2.394
				c0,0.904-0.646,1.713-1.552,1.908v3.877c0.646,0.192,1.067,0.776,1.067,1.392c0,0.84-0.681,1.521-1.487,1.521
				c-0.84,0-1.521-0.682-1.521-1.521c0-0.613,0.453-1.197,1.067-1.392v-3.877c-0.905-0.195-1.553-1.004-1.553-1.908v-2.394
				c-1.42-0.711-2.357-2.229-2.357-3.845c0-0.776,0.227-1.584,0.613-2.264c-2.683,0-4.881,2.197-4.881,4.88v12.187
				c0,0.971,0.613,1.715,1.584,1.715c1.002,0,1.616-0.744,1.616-1.715V26.457h0.871V40h9.113V26.457h0.843v10.277
				c0,0.969,0.614,1.713,1.616,1.713c0.969,0,1.582-0.744,1.582-1.713V24.549C32.613,21.898,30.447,19.668,27.766,19.668z"/>
			<path fill="#454545" d="M25.146,28.17v-2.909c1.39-0.614,2.358-1.747,2.358-3.329c0-0.81-0.291-1.617-0.842-2.264h-5.332
				c-0.518,0.646-0.841,1.455-0.841,2.264c0,1.582,0.97,2.714,2.358,3.329v2.909c0,0.613,0.519,1.098,1.164,1.098
				C24.63,29.268,25.146,28.783,25.146,28.17z"/>
		</g>
	</g>
</g>
<path fill="#FFFFFF" d="M40,51.477C40,52.316,39.316,53,38.477,53H9.524C8.682,53,8,52.316,8,51.477V37.762
	c0-0.841,0.682-1.522,1.524-1.522h28.953c0.842,0,1.523,0.683,1.523,1.522V51.477z"/>
<path fill="#454545" d="M40,52.477C40,53.316,39.316,54,38.477,54H9.524C8.682,54,8,53.316,8,52.477V38.762
	c0-0.841,0.682-1.522,1.524-1.522h28.953c0.842,0,1.523,0.683,1.523,1.522V52.477z"/>
<g>
	<path fill="#FFFFFF" d="M16.17,42.369l1.87,5h0.027l1.875-5h1.406v6.5h-1.085v-2.215l0.106-2.816l-0.026-0.005l-1.929,5.036h-0.728
		l-1.92-5.021l-0.026,0.004l0.107,2.805v2.214h-1.085v-6.5L16.17,42.369L16.17,42.369z"/>
	<path fill="#FFFFFF" d="M22.772,48.869v-6.5h2.16c0.721,0,1.283,0.148,1.688,0.443c0.405,0.297,0.606,0.738,0.606,1.328
		c0,0.295-0.084,0.559-0.254,0.791c-0.17,0.231-0.404,0.403-0.705,0.518c0.387,0.087,0.685,0.271,0.893,0.559
		c0.209,0.285,0.312,0.617,0.312,0.995c0,0.61-0.199,1.074-0.598,1.392c-0.398,0.316-0.949,0.476-1.652,0.476L22.772,48.869
		L22.772,48.869z M23.857,45.105h1.196c0.336,0,0.602-0.08,0.797-0.238c0.194-0.159,0.293-0.385,0.293-0.678
		c0-0.32-0.104-0.561-0.309-0.717c-0.206-0.156-0.507-0.233-0.902-0.233h-1.075V45.105z M23.857,45.914v2.085h1.366
		c0.375,0,0.663-0.086,0.865-0.257c0.202-0.172,0.305-0.418,0.305-0.741c0-0.345-0.086-0.61-0.256-0.802
		c-0.169-0.19-0.435-0.285-0.794-0.285H23.857z"/>
	<path fill="#FFFFFF" d="M32.15,47.193c0-0.27-0.101-0.489-0.301-0.661c-0.201-0.173-0.557-0.326-1.064-0.462
		c-0.727-0.19-1.285-0.443-1.676-0.758c-0.393-0.313-0.588-0.726-0.588-1.233c0-0.524,0.217-0.955,0.649-1.295
		c0.433-0.339,0.991-0.509,1.677-0.509c0.715,0,1.287,0.191,1.721,0.578c0.434,0.386,0.643,0.848,0.627,1.386l-0.008,0.026h-1.041
		c0-0.332-0.112-0.604-0.34-0.811c-0.226-0.207-0.549-0.311-0.969-0.311c-0.396,0-0.699,0.086-0.913,0.258
		c-0.213,0.174-0.319,0.396-0.319,0.668c0,0.246,0.117,0.451,0.348,0.615s0.611,0.317,1.145,0.463
		c0.699,0.188,1.23,0.447,1.594,0.776c0.363,0.331,0.545,0.752,0.545,1.265c0,0.541-0.217,0.973-0.648,1.293
		c-0.434,0.318-1.002,0.479-1.708,0.479c-0.679,0-1.272-0.182-1.784-0.542c-0.513-0.362-0.762-0.854-0.746-1.479l0.008-0.026h1.045
		c0,0.396,0.138,0.69,0.412,0.886c0.272,0.195,0.629,0.293,1.065,0.293c0.402,0,0.716-0.081,0.938-0.242
		C32.04,47.688,32.15,47.471,32.15,47.193z"/>
</g>
</svg>
