<?xml version="1.0" encoding="UTF-8" standalone="no"?>
<svg width="48px" height="48px" viewBox="0 0 48 48" version="1.1" xmlns="http://www.w3.org/2000/svg" xmlns:xlink="http://www.w3.org/1999/xlink" xmlns:sketch="http://www.bohemiancoding.com/sketch/ns">
    <title>Slice 1</title>
    <description>Created with Sketch (http://www.bohemiancoding.com/sketch)</description>
    <defs></defs>
    <g id="Page 1" stroke="none" stroke-width="1" fill="none" fill-rule="evenodd">
        <g id="Layer_1" fill="#444444">
            <path d="M24,1 C36.682,1 47,11.318 47,24 C47,36.682 36.682,47 24,47 C11.318,47 1,36.682 1,24 C1,11.318 11.318,1 24,1 L24,1 Z M24,0 C10.745,0 0,10.745 0,24 C0,37.254 10.745,48 24,48 C37.254,48 48,37.254 48,24 C48,10.745 37.254,0 24,0 L24,0 L24,0 Z M24,0" id="Shape"></path>
            <g id="Group" transform="translate(10.000000, 14.000000)">
                <path d="M10.0735982,0 L5.84733073,0 C3.41601563,6.6748794e-07 0.984700521,0 0.984700521,0 L0.984700521,1.03735352 L0,1.03735352 L0,20 L4.03613281,20 L4.03613281,15.9874268 L7.03222656,15.9874268 L7.03222656,20 L11,20 L11,1.03735352 L10.0735982,1.03735352 L10.0735982,0 Z M5,14.0044112 L2,14.0044112 L2,11 L5,11 L5,14.0044112 L5,14.0044112 Z M5,10.0053702 L2,10.0053702 L2,7 L5,7 L5,10.0053702 L5,10.0053702 Z M4,2.98077393 L5.01531982,2.98077393 L5.01531982,2 L6,2 L6,2.98077393 L7.01617432,2.98077393 L7.01617432,4 L6,4 L6,4.98095703 L5.01531982,4.98095703 L5.01531982,4 L4,4 L4,2.98077393 Z M9,14.0044112 L6,14.0044112 L6,11 L9,11 L9,14.0044112 L9,14.0044112 Z M9,10.0053702 L6,10.0053702 L6,7 L9,7 L9,10.0053702 L9,10.0053702 Z M9,10.0053702" id="Shape"></path>
                <g transform="translate(12.000000, 1.000000)" id="Shape">
                    <path d="M14,9 L13.0344238,9 L13.0344238,9.99918896 L12,9.99918897 L12,11.000811 L13.0344238,11.0008111 L13.0344238,12 L14,12 L14,11.0008111 L15.0006104,11.0008111 L15.0006104,9.99918896 L14,9.99918896 L14,9 Z M14,9"></path>
                    <path d="M9,0 L0,0 L0,19 L3.45686122,19 L5.97474803,19 L5.97474813,15.0488281 L9.02697754,15.0488281 L9.02697754,19 L18,19 L18,6.046875 L9.02697754,6.046875 L9,0 Z M4,13 L2,13 L2,11 L4,11 L4,13 L4,13 Z M4,10 L2,10 L2,8 L4,8 L4,10 L4,10 Z M4,7 L2,7 L2,5 L4,5 L4,7 L4,7 Z M4,4 L2,4 L2,2 L4,2 L4,4 L4,4 Z M7,13 L5,13 L5,11 L7,11 L7,13 L7,13 Z M7,10 L5,10 L5,8 L7,8 L7,10 L7,10 Z M7,7 L5,7 L5,5 L7,5 L7,7 L7,7 Z M7,4 L5,4 L5,2 L7,2 L7,4 L7,4 Z M13.5,13 C12.1196429,13 11,11.8798643 11,10.5008925 C11,9.1210282 12.1196429,8 13.5,8 C14.88125,8 16,9.12013567 16,10.5008925 C16,11.8807569 14.88125,13 13.5,13 L13.5,13 Z M13.5,13"></path>
                </g>
            </g>
        </g>
    </g>
</svg>