<?xml version="1.0" encoding="utf-8"?>
<!-- Generator: Adobe Illustrator 16.0.0, SVG Export Plug-In . SVG Version: 6.00 Build 0)  -->
<!DOCTYPE svg PUBLIC "-//W3C//DTD SVG 1.1//EN" "http://www.w3.org/Graphics/SVG/1.1/DTD/svg11.dtd">
<svg version="1.1" id="Layer_1" xmlns="http://www.w3.org/2000/svg" xmlns:xlink="http://www.w3.org/1999/xlink" x="0px" y="0px"
	 width="32px" height="32px" viewBox="0 0 32 32" enable-background="new 0 0 32 32" xml:space="preserve">
<path fill="#158CCC" d="M16,0C7.163,0,0,7.163,0,16c0,8.834,7.163,16,16,16c8.836,0,16-7.166,16-16C32,7.163,24.837,0,16,0z
	 M13.411,25.472c-1.042,0-1.765-0.491-1.765-1.588c0-1.392,0.984-3.763,1.188-4.253l2.023-5.093c0.202-0.521-0.058-0.781-0.29-0.781
	c-1.07,0-2.46,2.519-2.98,2.519c-0.203,0-0.375-0.204-0.375-0.377c0-0.523,1.271-1.738,1.648-2.111
	c1.158-1.098,2.662-1.941,4.342-1.941c1.243,0,2.574,0.753,1.533,3.562l-2.085,5.64c-0.172,0.434-0.49,1.157-0.49,1.621
	c0,0.2,0.113,0.404,0.345,0.404c0.868,0,2.46-2.462,2.866-2.462c0.144,0,0.346,0.177,0.346,0.437
	C19.718,21.886,16.333,25.472,13.411,25.472z M18.389,10.808c-1.187,0-1.97-0.783-1.97-1.971c0-1.271,1.099-2.312,2.373-2.312
	c1.157,0,1.995,0.781,1.995,1.965C20.787,9.824,19.689,10.808,18.389,10.808z"/>
</svg>
