<?xml version="1.0" encoding="utf-8"?>
<!-- Generator: Adobe Illustrator 16.0.0, SVG Export Plug-In . SVG Version: 6.00 Build 0)  -->
<!DOCTYPE svg PUBLIC "-//W3C//DTD SVG 1.1//EN" "http://www.w3.org/Graphics/SVG/1.1/DTD/svg11.dtd">
<svg version="1.1" id="Layer_1" xmlns="http://www.w3.org/2000/svg" xmlns:xlink="http://www.w3.org/1999/xlink" x="0px" y="0px"
	 width="60px" height="53px" viewBox="0 0 60 53" enable-background="new 0 0 60 53" xml:space="preserve">
<g>
	<path fill="#D63D3D" d="M58.688,43.893L35.05,2.949C33.997,1.125,32.049,0,29.943,0s-4.053,1.125-5.107,2.949L1.198,43.893
		c-1.054,1.824-1.054,4.072,0,5.896c1.054,1.826,3,2.949,5.107,2.949h47.276c2.106,0,4.054-1.123,5.106-2.949
		C59.741,47.965,59.742,45.717,58.688,43.893z M6.305,46.842L29.943,5.897L53.581,46.84H6.305V46.842z"/>
	<path fill="#D63D3D" d="M26.994,19.518v12.306c0,1.627,1.32,2.947,2.949,2.947c1.629,0,2.95-1.32,2.95-2.947V19.518
		c0-1.628-1.32-2.949-2.95-2.949C28.314,16.569,26.994,17.889,26.994,19.518z"/>
	<circle fill="#D63D3D" cx="29.943" cy="39.986" r="2.947"/>
</g>
</svg>
