<?xml version="1.0" encoding="utf-8"?>
<!-- Generator: Adobe Illustrator 16.0.0, SVG Export Plug-In . SVG Version: 6.00 Build 0)  -->
<!DOCTYPE svg PUBLIC "-//W3C//DTD SVG 1.1//EN" "http://www.w3.org/Graphics/SVG/1.1/DTD/svg11.dtd">
<svg version="1.1" id="Layer_1" xmlns="http://www.w3.org/2000/svg" xmlns:xlink="http://www.w3.org/1999/xlink" x="0px" y="0px"
	 width="60px" height="60px" viewBox="0 0 60 60" enable-background="new 0 0 60 60" xml:space="preserve">
<g>
	<g opacity="0.1">
		<circle fill="#999999" cx="30" cy="30" r="30"/>
	</g>
	<g>
		<path fill="#999999" d="M30,2c15.439,0,28,12.561,28,28c0,15.439-12.561,28-28,28C14.561,58,2,45.439,2,30C2,14.561,14.561,2,30,2
			 M30,0C13.432,0,0,13.432,0,30c0,16.568,13.432,30,30,30c16.568,0,30-13.432,30-30C60,13.432,46.568,0,30,0L30,0z"/>
	</g>
</g>
<g>
	<path fill="#79BE43" d="M24.286,19.645L18.853,21.1l1.455,5.435l5.434-1.456L24.286,19.645z M23.856,23.988l-2.459,0.659
		l-0.658-2.458l2.458-0.658L23.856,23.988z"/>
	<path fill="#999999" d="M34.52,21.097l-1.43-0.28l-0.921,0.749l-1.082-0.197l-1.1,0.801l-1.305-0.163l-0.259,0.221
		c-0.303,0.26-0.726,0.592-0.849,0.658c0.004-0.002,0.085-0.044,0.213-0.053l0.117,1.536c0.181-0.016,0.387-0.031,1.259-0.75
		l1.239,0.155l1.058-0.772l1.131,0.204l0.909-0.737l1.289,0.254"/>
	<path fill="#999999" d="M40.593,34.922c-1.048-0.076-1.192-0.066-1.243-0.062c-0.182,0.016-0.386,0.031-1.258,0.75l-1.242-0.154
		l-1.057,0.771l-1.133-0.203l-0.906,0.738l-1.291-0.255l-1.416,0.82l0.775,1.334l0.912-0.531l1.432,0.279l0.916-0.746l1.084,0.194
		l1.102-0.801l1.306,0.16l0.258-0.221c0.274-0.236,0.59-0.48,0.756-0.6c0.269,0.014,0.812,0.051,1.274,0.088"/>
	<path fill="#999999" d="M36.637,30.014l-1.43-0.281l-0.916,0.748l-1.086-0.197l-1.1,0.802l-1.308-0.162l-0.258,0.223
		c-0.302,0.258-0.726,0.593-0.849,0.658c0.002-0.004,0.085-0.045,0.214-0.055l0.117,1.535c0.183-0.016,0.386-0.029,1.257-0.75
		l1.24,0.156l1.058-0.773l1.131,0.203l0.91-0.738l1.289,0.256"/>
	<path fill="#999999" d="M37.318,9.474l-24.149,6.47c-0.822,0.222-1.309,1.064-1.089,1.887l8.714,32.524
		c0.221,0.824,1.065,1.313,1.887,1.093l24.149-6.472c0.82-0.221,1.311-1.065,1.09-1.889l-8.715-32.526
		C38.986,9.741,38.141,9.253,37.318,9.474z M44.742,41.668c0.084,0.314,0.041,0.652-0.123,0.934
		c-0.162,0.281-0.434,0.488-0.744,0.57l-19.533,5.234c-0.313,0.084-0.651,0.039-0.931-0.123c-0.282-0.16-0.491-0.432-0.573-0.744
		L14.95,18.105l21.905-5.87L44.742,41.668z"/>
	<path fill="#999999" d="M38.967,38.711l-1.428-0.279l-0.92,0.746l-1.084-0.197l-1.1,0.804l-1.306-0.162l-0.261,0.221
		c-0.301,0.259-0.723,0.595-0.848,0.658c0.004-0.004,0.086-0.045,0.215-0.056l0.117,1.535c0.184-0.016,0.385-0.026,1.256-0.748
		l1.242,0.154l1.058-0.772l1.133,0.204l0.906-0.737l1.29,0.254"/>
	<path fill="#999999" d="M38.262,26.227c-1.048-0.078-1.191-0.067-1.242-0.064c-0.182,0.016-0.386,0.029-1.26,0.75l-1.24-0.153
		l-1.057,0.771l-1.133-0.206l-0.906,0.739l-1.292-0.252l-1.416,0.822l0.775,1.331l0.912-0.53l1.432,0.28l0.918-0.748l1.083,0.195
		l1.1-0.801l1.31,0.161l0.254-0.22c0.276-0.234,0.59-0.483,0.761-0.599c0.264,0.013,0.811,0.052,1.272,0.086"/>
	<path fill="#999999" d="M36.145,17.31c-1.047-0.078-1.192-0.067-1.244-0.063c-0.182,0.014-0.387,0.028-1.258,0.749L32.4,17.843
		l-1.058,0.771l-1.131-0.207l-0.91,0.74l-1.289-0.253l-1.414,0.823l0.772,1.331l0.915-0.531l1.43,0.28l0.916-0.747l1.087,0.196
		l1.098-0.801l1.308,0.161l0.259-0.22c0.248-0.213,0.577-0.475,0.758-0.6c0.266,0.013,0.809,0.05,1.271,0.087"/>
	<path fill="#79BE43" d="M26.657,28.493l-5.433,1.457l1.455,5.435l5.435-1.457L26.657,28.493z M26.227,32.838l-2.46,0.656
		l-0.658-2.457l2.458-0.658L26.227,32.838z"/>
	<path fill="#79BE43" d="M28.989,37.189l-5.435,1.457l1.458,5.434l5.432-1.457L28.989,37.189z M28.558,41.533l-2.458,0.66
		l-0.659-2.459l2.458-0.658L28.558,41.533z"/>
	<g>
		<path fill="#999999" d="M31.164,8.847l-3.876,1.038c-0.649-1.063-1.933-1.625-3.196-1.286c-1.263,0.338-2.092,1.468-2.125,2.712
			l-3.784,1.014c-2.435,0.651-1.652,2.75-1.434,3.573l0.201,0.743c0.219,0.822,1.065,1.31,1.885,1.09l14.467-3.876
			c0.821-0.22,1.312-1.065,1.091-1.887l-0.199-0.744C33.973,10.401,33.414,8.244,31.164,8.847z M25.015,12.042
			c-0.36,0.097-0.731-0.117-0.829-0.479c-0.096-0.361,0.118-0.732,0.48-0.829c0.361-0.097,0.73,0.118,0.83,0.479
			C25.589,11.575,25.376,11.944,25.015,12.042z"/>
	</g>
</g>
</svg>
