<?xml version="1.0" encoding="utf-8"?>
<!-- Generator: Adobe Illustrator 16.0.0, SVG Export Plug-In . SVG Version: 6.00 Build 0)  -->
<!DOCTYPE svg PUBLIC "-//W3C//DTD SVG 1.1//EN" "http://www.w3.org/Graphics/SVG/1.1/DTD/svg11.dtd">
<svg version="1.1" xmlns="http://www.w3.org/2000/svg" xmlns:xlink="http://www.w3.org/1999/xlink" x="0px" y="0px" width="16px"
	 height="64px" viewBox="0 0 16 64" enable-background="new 0 0 16 64" xml:space="preserve">
<g id="Layer_4">
	<rect x="103.334" y="-15.812" width="33.001" height="84"/>
</g>
<g id="Layer_5">
	<circle fill="#FFFFFF" cx="8" cy="7.999" r="8"/>
</g>
<g id="Layer_1">
	<path fill="#0E87C9" d="M10.729,7.268c0.404,0.406,0.404,1.055,0,1.461l-2.978,2.976c-0.393,0.393-1.055,0.393-1.447,0
		c-0.406-0.404-0.406-1.055,0-1.461l2.246-2.245L6.305,5.752c-0.406-0.405-0.406-1.056,0-1.447c0.393-0.406,1.055-0.406,1.447,0
		L10.729,7.268z"/>
</g>
<g id="Layer_2">
	<circle fill="#FFFFFF" cx="8" cy="24" r="8"/>
	<path fill="#0E87C9" d="M5.304,24.731c-0.404-0.405-0.404-1.055,0-1.461l2.979-2.975c0.393-0.393,1.055-0.393,1.447,0
		c0.406,0.404,0.406,1.055,0,1.461l-2.246,2.244l2.246,2.246c0.406,0.406,0.406,1.057,0,1.448c-0.393,0.406-1.055,0.406-1.447,0
		L5.304,24.731z"/>
	<circle fill="#FFFFFF" cx="8" cy="40" r="8"/>
	<path fill="#0E87C9" d="M7.269,37.303c0.405-0.404,1.055-0.404,1.461,0l2.975,2.98c0.393,0.393,0.393,1.055,0,1.447
		c-0.404,0.406-1.055,0.406-1.461,0l-2.244-2.248L5.753,41.73c-0.406,0.406-1.057,0.406-1.448,0c-0.406-0.393-0.406-1.055,0-1.447
		L7.269,37.303z"/>
	<circle fill="#FFFFFF" cx="8" cy="56" r="8"/>
	<path fill="#0E87C9" d="M8.73,58.731c-0.405,0.404-1.055,0.404-1.461,0l-2.975-2.979c-0.393-0.393-0.393-1.055,0-1.447
		c0.404-0.406,1.055-0.406,1.461,0L8,56.552l2.247-2.247c0.406-0.406,1.057-0.406,1.449,0c0.406,0.393,0.404,1.055-0.002,1.447
		L8.73,58.731z"/>
</g>
<g id="Layer_3">
</g>
</svg>
