<?xml version="1.0" encoding="utf-8"?>
<!-- Generator: Adobe Illustrator 16.0.0, SVG Export Plug-In . SVG Version: 6.00 Build 0)  -->
<!DOCTYPE svg PUBLIC "-//W3C//DTD SVG 1.1//EN" "http://www.w3.org/Graphics/SVG/1.1/DTD/svg11.dtd">
<svg version="1.1" id="Layer_1" xmlns="http://www.w3.org/2000/svg" xmlns:xlink="http://www.w3.org/1999/xlink" x="0px" y="0px"
	 width="48px" height="96px" viewBox="0 0 48 96" enable-background="new 0 0 48 96" xml:space="preserve">
<path fill="#444444" d="M24,1c12.682,0,23,10.318,23,23c0,12.682-10.318,23-23,23C11.318,47,1,36.682,1,24C1,11.318,11.318,1,24,1
	 M24,0C10.745,0,0,10.745,0,24c0,13.254,10.745,24,24,24c13.254,0,24-10.746,24-24C48,10.745,37.254,0,24,0L24,0z"/>
<path fill="#444444" d="M24.001,25.32c2.394,0,3.504,1.818,3.737,4.398c0.056,0.615-0.002,1.518-0.081,2.561
	C27.389,35.742,27.079,40,29.387,40c1.95,0,2.952-3.742,3.53-8.008c0.56-4.225-0.033-6.326,0.258-8.201
	c0.556-3.553,3.655-6.739,2.698-11.27c-0.531-2.513-1.915-3.694-3.286-4.191c-3.157-1.148-5.194,1.064-8.586,1.064
	c-3.392,0-5.431-2.212-8.589-1.064c-1.37,0.497-2.753,1.679-3.286,4.191c-0.957,4.53,2.144,7.715,2.7,11.27
	c0.291,1.875-0.301,3.977,0.257,8.201C15.662,36.258,16.665,40,18.616,40c2.305,0,1.997-4.258,1.728-7.721
	c-0.08-1.043-0.137-1.941-0.082-2.561C20.494,27.139,21.62,25.32,24.001,25.32z"/>
<g>
	<path fill="#999999" d="M43.812,60.337c0.194,0.33,0.381,0.664,0.56,1.003l0.749-0.749c-0.184-0.336-0.372-0.667-0.569-0.993
		L43.812,60.337z"/>
	<path fill="#999999" d="M42.633,58.54c0.221,0.303,0.432,0.612,0.637,0.926L44,58.736c-0.207-0.312-0.422-0.618-0.645-0.92
		L42.633,58.54z"/>
	<path fill="#999999" d="M41.312,56.883c0.244,0.279,0.48,0.562,0.711,0.854l0.72-0.719c-0.231-0.289-0.47-0.572-0.714-0.85
		L41.312,56.883z"/>
	<path fill="#999999" d="M44.841,62.286c0.167,0.356,0.325,0.721,0.476,1.088l0.771-0.772c-0.154-0.362-0.316-0.721-0.488-1.074
		L44.841,62.286z"/>
	<path fill="#999999" d="M45.703,64.398c0.138,0.391,0.263,0.785,0.379,1.185l0.809-0.81c-0.123-0.392-0.258-0.778-0.399-1.162
		L45.703,64.398z"/>
	<path fill="#999999" d="M38.264,53.979c0.291,0.229,0.574,0.467,0.854,0.709l0.716-0.715c-0.277-0.244-0.562-0.482-0.852-0.715
		L38.264,53.979z"/>
	<path fill="#999999" d="M46.377,66.703c0.102,0.428,0.189,0.859,0.268,1.296l0.861-0.862c-0.087-0.426-0.188-0.847-0.298-1.264
		L46.377,66.703z"/>
	<path fill="#999999" d="M28.001,49.355c0.437,0.076,0.868,0.166,1.296,0.267l0.83-0.831c-0.417-0.109-0.838-0.21-1.264-0.298
		L28.001,49.355z"/>
	<path fill="#999999" d="M32.626,50.686c0.367,0.148,0.729,0.307,1.089,0.475l0.758-0.758c-0.354-0.172-0.711-0.336-1.074-0.49
		L32.626,50.686z"/>
	<path fill="#999999" d="M36.534,52.73c0.313,0.205,0.622,0.416,0.926,0.637l0.724-0.725c-0.301-0.221-0.607-0.435-0.918-0.643
		L36.534,52.73z"/>
	<path fill="#999999" d="M34.659,51.629c0.339,0.178,0.674,0.364,1.003,0.559l0.738-0.738c-0.326-0.197-0.657-0.387-0.993-0.569
		L34.659,51.629z"/>
	<path fill="#999999" d="M30.416,49.917c0.398,0.116,0.794,0.242,1.184,0.378l0.787-0.787c-0.383-0.143-0.771-0.277-1.162-0.4
		L30.416,49.917z"/>
	<path fill="#999999" d="M46.827,69.23c0.058,0.474,0.104,0.949,0.131,1.432l0.933-0.932c-0.045-0.469-0.099-0.935-0.168-1.395
		L46.827,69.23z"/>
	<path fill="#999999" d="M1.067,70.337l-1.051,1.052C0.01,71.592,0,71.795,0,72c0,0.316,0.012,0.629,0.024,0.941l0.977-0.977
		C1.002,71.417,1.028,70.875,1.067,70.337z"/>
	<path fill="#999999" d="M7.363,87.855L6.648,88.57c0.254,0.267,0.515,0.525,0.781,0.781l0.715-0.716
		C7.877,88.383,7.617,88.122,7.363,87.855z"/>
	<path fill="#999999" d="M24.035,94.999l-0.978,0.978C23.371,95.988,23.684,96,24,96c0.205,0,0.408-0.011,0.611-0.016l1.052-1.051
		C25.125,94.973,24.583,94.998,24.035,94.999z"/>
	<path fill="#999999" d="M23.965,49.001l0.977-0.978C24.629,48.012,24.316,48,24,48c-0.205,0-0.408,0.01-0.612,0.016l-1.051,1.051
		C22.875,49.027,23.417,49.002,23.965,49.001z"/>
	<path fill="#999999" d="M5.052,58.982c1.599-2.319,3.611-4.332,5.931-5.931l2.746-2.745c-1.365,0.646-2.658,1.42-3.866,2.303
		L4.61,57.861c-0.883,1.209-1.657,2.502-2.304,3.867L5.052,58.982z"/>
	<path fill="#999999" d="M46.669,79.882c0.251-0.724,0.47-1.462,0.651-2.215l-1.455,1.455c-0.289,0.887-0.631,1.749-1.021,2.584
		L46.669,79.882z"/>
	<path fill="#999999" d="M40.637,56.145l0.715-0.715c-0.254-0.267-0.515-0.527-0.781-0.781l-0.715,0.716
		C40.122,55.617,40.383,55.877,40.637,56.145z"/>
	<path fill="#999999" d="M46.768,75.243c-0.093,0.649-0.213,1.29-0.358,1.922l1.272-1.272c0.096-0.588,0.168-1.184,0.221-1.783
		L46.768,75.243z"/>
	<path fill="#999999" d="M46.934,73.663l1.051-1.052C47.988,72.408,48,72.205,48,72c0-0.316-0.012-0.629-0.023-0.941l-0.978,0.977
		C46.998,72.583,46.973,73.125,46.934,73.663z"/>
	<path fill="#999999" d="M22.662,94.958c-0.482-0.026-0.958-0.073-1.432-0.131l-0.894,0.896c0.46,0.069,0.925,0.123,1.394,0.168
		L22.662,94.958z"/>
	<path fill="#999999" d="M17.583,94.082c-0.399-0.116-0.794-0.241-1.184-0.379l-0.787,0.787c0.383,0.143,0.77,0.277,1.162,0.4
		L17.583,94.082z"/>
	<path fill="#999999" d="M13.341,92.371c-0.339-0.18-0.674-0.364-1.003-0.559L11.6,92.55c0.326,0.197,0.657,0.388,0.993,0.569
		L13.341,92.371z"/>
	<path fill="#999999" d="M15.374,93.314c-0.367-0.148-0.73-0.308-1.088-0.475l-0.758,0.758c0.354,0.172,0.711,0.336,1.073,0.489
		L15.374,93.314z"/>
	<path fill="#999999" d="M11.466,91.27c-0.314-0.205-0.623-0.416-0.926-0.637l-0.724,0.725c0.301,0.222,0.607,0.437,0.919,0.644
		L11.466,91.27z"/>
	<path fill="#999999" d="M9.736,90.021c-0.29-0.229-0.575-0.467-0.854-0.709l-0.716,0.715c0.278,0.244,0.561,0.482,0.85,0.715
		L9.736,90.021z"/>
	<path fill="#999999" d="M19.999,94.645c-0.437-0.076-0.868-0.166-1.296-0.268l-0.83,0.831c0.417,0.108,0.838,0.211,1.264,0.298
		L19.999,94.645z"/>
	<path fill="#999999" d="M43.389,86.141c0.883-1.209,1.657-2.504,2.305-3.869l-2.744,2.744c-1.6,2.321-3.611,4.334-5.934,5.934
		l-2.744,2.744c1.365-0.646,2.66-1.422,3.869-2.305L43.389,86.141z"/>
	<path fill="#999999" d="M33.706,92.846c-0.835,0.391-1.697,0.73-2.584,1.021l-1.455,1.454c0.753-0.182,1.491-0.399,2.215-0.65
		L33.706,92.846z"/>
	<path fill="#999999" d="M6.688,87.117c-0.244-0.279-0.48-0.562-0.71-0.854l-0.719,0.719c0.231,0.289,0.469,0.572,0.713,0.851
		L6.688,87.117z"/>
	<path fill="#999999" d="M29.165,94.408c-0.631,0.146-1.271,0.267-1.921,0.357l-1.137,1.137c0.602-0.053,1.197-0.125,1.783-0.223
		L29.165,94.408z"/>
	<path fill="#999999" d="M3.159,81.715c-0.167-0.357-0.325-0.722-0.475-1.089l-0.772,0.772c0.154,0.362,0.318,0.721,0.489,1.074
		L3.159,81.715z"/>
	<path fill="#999999" d="M2.134,64.879c0.29-0.887,0.631-1.75,1.021-2.585l-1.824,1.825c-0.251,0.724-0.47,1.462-0.652,2.215
		L2.134,64.879z"/>
	<path fill="#999999" d="M1.173,74.77c-0.057-0.473-0.103-0.949-0.131-1.432L0.11,74.271c0.044,0.468,0.098,0.934,0.168,1.394
		L1.173,74.77z"/>
	<path fill="#999999" d="M1.233,68.756c0.092-0.65,0.213-1.29,0.359-1.921l-1.273,1.272c-0.096,0.588-0.169,1.183-0.221,1.785
		L1.233,68.756z"/>
	<path fill="#999999" d="M14.294,51.154c0.836-0.391,1.699-0.731,2.585-1.021l1.455-1.454c-0.753,0.182-1.492,0.4-2.215,0.651
		L14.294,51.154z"/>
	<path fill="#999999" d="M5.367,85.46c-0.22-0.304-0.432-0.612-0.637-0.926L4,85.266c0.208,0.312,0.422,0.617,0.643,0.918
		L5.367,85.46z"/>
	<path fill="#999999" d="M18.835,49.592c0.631-0.146,1.271-0.267,1.921-0.359l1.135-1.135c-0.601,0.053-1.196,0.125-1.783,0.221
		L18.835,49.592z"/>
	<path fill="#999999" d="M1.623,77.297c-0.101-0.428-0.19-0.859-0.267-1.296l-0.862,0.862c0.088,0.426,0.189,0.847,0.298,1.264
		L1.623,77.297z"/>
	<path fill="#999999" d="M4.188,83.662c-0.195-0.329-0.381-0.664-0.559-1.003L2.88,83.407c0.182,0.337,0.372,0.668,0.569,0.993
		L4.188,83.662z"/>
	<path fill="#999999" d="M25.338,49.042c0.482,0.028,0.959,0.074,1.432,0.131l0.896-0.896c-0.46-0.069-0.927-0.125-1.394-0.168
		L25.338,49.042z"/>
	<path fill="#999999" d="M2.296,79.6c-0.137-0.39-0.262-0.783-0.378-1.184l-0.809,0.809c0.124,0.393,0.258,0.779,0.4,1.162
		L2.296,79.6z"/>
</g>
<g>
	<path fill="#999999" d="M16.953,56.014c-0.49,0.026-0.998,0.119-1.541,0.316c-0.208,0.076-0.416,0.173-0.621,0.281l-1.935,1.936
		c-0.307,0.545-0.563,1.188-0.73,1.975c-0.027,0.129-0.04,0.252-0.061,0.379L16.953,56.014z"/>
	<path fill="#999999" d="M21.818,57.102c-0.417-0.104-0.818-0.227-1.21-0.353l-8.237,8.237c0.117,0.396,0.251,0.783,0.396,1.166
		L21.818,57.102z"/>
	<path fill="#999999" d="M19.535,56.407c-0.417-0.126-0.832-0.235-1.253-0.31l-6.328,6.328c0.01,0.487,0.059,0.959,0.143,1.42
		L19.535,56.407z"/>
	<path fill="#999999" d="M28.467,56.407c-0.726,0.22-1.46,0.485-2.25,0.687L14.065,69.245c0.154,0.381,0.295,0.763,0.418,1.146
		L28.467,56.407z"/>
	<path fill="#999999" d="M24.521,57.374c-0.17,0.011-0.342,0.021-0.521,0.021c-0.346,0-0.674-0.026-0.994-0.066l-9.833,9.833
		c0.156,0.366,0.315,0.729,0.472,1.09L24.521,57.374z"/>
	<path fill="#999999" d="M33.82,57.006c-0.32-0.24-0.652-0.429-0.99-0.572L14.877,74.387c-0.019,0.49-0.039,1.016-0.043,1.606
		L33.82,57.006z"/>
	<path fill="#999999" d="M30.262,56.025l-15.49,15.49c0.018,0.092,0.04,0.184,0.055,0.274c0.057,0.369,0.075,0.753,0.079,1.153
		l16.841-16.84C31.229,56.002,30.738,55.982,30.262,56.025z"/>
	<path fill="#999999" d="M33.154,76.947l-5.649,5.65c-0.024,0.543-0.037,1.078-0.026,1.59l5.588-5.588
		C33.117,78.001,33.145,77.457,33.154,76.947z"/>
	<path fill="#999999" d="M32.205,83.854l-3.787,3.787C28.674,87.867,28.988,88,29.387,88c0.092,0,0.18-0.018,0.266-0.032l1.74-1.739
		C31.706,85.57,31.975,84.764,32.205,83.854z"/>
	<path fill="#999999" d="M20.526,83.623l-3.434,3.436c0.245,0.338,0.513,0.596,0.808,0.754l2.562-2.562
		C20.512,84.743,20.532,84.195,20.526,83.623z"/>
	<path fill="#999999" d="M19.952,87.174l-0.669,0.669C19.56,87.705,19.78,87.477,19.952,87.174z"/>
	<path fill="#999999" d="M35.186,58.62c-0.19-0.351-0.398-0.668-0.629-0.937L14.859,77.382c0.018,0.453,0.053,0.943,0.101,1.464
		L35.186,58.62z"/>
	<path fill="#999999" d="M33.109,74.016l-5.393,5.395c-0.018,0.277-0.037,0.564-0.061,0.869c-0.021,0.268-0.041,0.539-0.062,0.813
		l5.562-5.562C33.146,74.982,33.127,74.475,33.109,74.016z"/>
	<path fill="#999999" d="M32.591,82.053c0.11-0.601,0.209-1.224,0.298-1.861l-5.32,5.322c0.061,0.477,0.156,0.902,0.297,1.266
		L32.591,82.053z"/>
	<path fill="#999999" d="M20.287,79.473c-0.038-0.595-0.054-1.107-0.034-1.529l-4.725,4.725c0.09,0.441,0.187,0.867,0.291,1.271
		L20.287,79.473z"/>
	<path fill="#999999" d="M20.48,82.255c-0.026-0.489-0.061-0.981-0.097-1.465l-4.247,4.247c0.135,0.408,0.282,0.783,0.439,1.123
		L20.48,82.255z"/>
	<path fill="#999999" d="M20.53,76.251c0.433-1.569,1.348-2.646,2.871-2.871l12.526-12.524c-0.02-0.111-0.03-0.221-0.054-0.334
		c-0.07-0.33-0.156-0.635-0.254-0.92L15.101,80.118c0.063,0.46,0.132,0.913,0.206,1.354L20.53,76.251z"/>
	<path fill="#999999" d="M26.65,74.521c0.229,0.287,0.41,0.627,0.566,0.996l7.036-7.037c0.375-0.871,0.778-1.752,1.106-2.67
		L26.65,74.521z"/>
	<path fill="#999999" d="M25.9,73.857l9.998-9.998c0.103-0.555,0.162-1.125,0.154-1.719L24.796,73.398
		C25.216,73.482,25.576,73.646,25.9,73.857z"/>
	<path fill="#999999" d="M27.559,76.592c0.08,0.357,0.145,0.729,0.18,1.127c0.008,0.073,0.008,0.163,0.012,0.244l5.354-5.354
		c0.012-0.279,0.031-0.553,0.072-0.818c0.057-0.355,0.143-0.708,0.242-1.059L27.559,76.592z"/>
</g>
</svg>
