<?xml version="1.0" encoding="utf-8"?>
<!-- Generator: Adobe Illustrator 16.0.0, SVG Export Plug-In . SVG Version: 6.00 Build 0)  -->
<!DOCTYPE svg PUBLIC "-//W3C//DTD SVG 1.1//EN" "http://www.w3.org/Graphics/SVG/1.1/DTD/svg11.dtd">
<svg version="1.1" id="Layer_1" xmlns="http://www.w3.org/2000/svg" xmlns:xlink="http://www.w3.org/1999/xlink" x="0px" y="0px"
	 width="22px" height="24px" viewBox="0 0 22 24" enable-background="new 0 0 22 24" xml:space="preserve">
<path fill="#666766" d="M0.455,7.669v14.356c0,1.071,0.859,1.94,1.917,1.94h17.256c1.059,0,1.917-0.869,1.917-1.94V7.669H0.455z
	 M5.728,22.527H1.893v-3.834h3.834V22.527z M5.728,17.733H1.893v-3.834h3.834V17.733z M5.728,12.941H1.893V9.107h3.834V12.941z
	 M10.521,22.527H6.687v-3.834h3.834V22.527z M10.521,17.733H6.687v-3.834h3.834V17.733z M10.521,12.941H6.687V9.107h3.834V12.941z
	 M15.312,22.527h-3.833v-3.834h3.833V22.527z M15.312,17.733h-3.833v-3.834h3.833V17.733z M15.312,12.941h-3.833V9.107h3.833V12.941
	z M20.107,22.527h-3.835v-3.834h3.835V22.527z M20.107,17.733h-3.835v-3.834h3.835V17.733z M20.107,12.941h-3.835V9.107h3.835
	V12.941z"/>
<path fill="#666766" d="M19.628,2.875h-3.116V0.719C16.512,0.322,16.19,0,15.794,0c-0.398,0-0.721,0.322-0.721,0.719v2.157H6.926
	V0.719C6.926,0.322,6.604,0,6.207,0S5.488,0.322,5.488,0.719v2.157H2.372c-1.058,0-1.917,0.869-1.917,1.94V6.47l0,0v0.24h21.09V6.47
	l0,0V4.815C21.545,3.744,20.687,2.875,19.628,2.875z M6.207,6.231c-0.794,0-1.438-0.644-1.438-1.438c0-0.532,0.29-0.995,0.719-1.243
	v1.243c0,0.397,0.322,0.719,0.719,0.719S6.926,5.19,6.926,4.792V3.549c0.43,0.249,0.719,0.712,0.719,1.244
	C7.645,5.587,7.001,6.231,6.207,6.231z M15.794,6.231c-0.795,0-1.439-0.644-1.439-1.438c0-0.532,0.29-0.995,0.719-1.243v1.243
	c0,0.397,0.322,0.719,0.721,0.719c0.396,0,0.718-0.322,0.718-0.719V3.549c0.43,0.249,0.719,0.712,0.719,1.244
	C17.23,5.587,16.587,6.231,15.794,6.231z"/>
</svg>
