<?xml version="1.0" encoding="utf-8"?>
<!-- Generator: Adobe Illustrator 16.0.0, SVG Export Plug-In . SVG Version: 6.00 Build 0)  -->
<!DOCTYPE svg PUBLIC "-//W3C//DTD SVG 1.1//EN" "http://www.w3.org/Graphics/SVG/1.1/DTD/svg11.dtd">
<svg version="1.1" id="Layer_1" xmlns="http://www.w3.org/2000/svg" xmlns:xlink="http://www.w3.org/1999/xlink" x="0px" y="0px"
	 width="20px" height="20px" viewBox="0 0 20 20" enable-background="new 0 0 20 20" xml:space="preserve">
<g id="Page_1">
	<path id="Shape" fill="#3C5A99" d="M10,0C4.477,0,0,4.478,0,10c0,5.523,4.477,10,10,10c5.523,0,10-4.479,10-10
		C20,4.478,15.523,0,10,0L10,0z"/>
	<path id="Path" fill="#FFFFFF" d="M11.334,6.07c-0.331,0-0.636,0.429-0.636,0.632v1.319h1.975v2.006h-1.975v6.027H8.667v-6.027
		H7.333V7.916l1.334,0.105V6.07C8.667,5.773,8.454,4,11.002,4l1.67,0.079V6.07H11.334z"/>
</g>
</svg>
