<?xml version="1.0" encoding="utf-8"?>
<!-- Generator: Adobe Illustrator 16.0.0, SVG Export Plug-In . SVG Version: 6.00 Build 0)  -->
<!DOCTYPE svg PUBLIC "-//W3C//DTD SVG 1.1//EN" "http://www.w3.org/Graphics/SVG/1.1/DTD/svg11.dtd">
<svg version="1.1" id="Layer_1" xmlns="http://www.w3.org/2000/svg" xmlns:xlink="http://www.w3.org/1999/xlink" x="0px" y="0px"
	 width="32px" height="32px" viewBox="0 0 32 32" enable-background="new 0 0 32 32" xml:space="preserve">
<g>
	<path fill="#79BE10" d="M16,0C7.178,0,0,7.178,0,16s7.178,16,16,16s16-7.177,16-16C32,7.178,24.823,0,16,0z M16,29.642
		C8.478,29.642,2.357,23.522,2.357,16C2.357,8.478,8.478,2.357,16,2.357c7.522,0,13.641,6.12,13.641,13.643
		C29.642,23.522,23.522,29.642,16,29.642z"/>
	<path fill="#79BE10" d="M22.061,10.125l-7.712,9.203L9.907,14.46c-0.438-0.482-1.185-0.517-1.667-0.076
		c-0.481,0.439-0.515,1.184-0.076,1.666l5.349,5.863c0.224,0.245,0.541,0.385,0.871,0.385c0.008,0,0.017,0,0.025,0
		c0.34-0.007,0.66-0.162,0.878-0.422l8.58-10.235c0.418-0.5,0.353-1.242-0.146-1.661C23.223,9.559,22.479,9.628,22.061,10.125z"/>
</g>
</svg>
