<?xml version="1.0" encoding="utf-8"?>
<!-- Generator: Adobe Illustrator 16.0.0, SVG Export Plug-In . SVG Version: 6.00 Build 0)  -->
<!DOCTYPE svg PUBLIC "-//W3C//DTD SVG 1.1//EN" "http://www.w3.org/Graphics/SVG/1.1/DTD/svg11.dtd">
<svg version="1.1" id="Layer_1" xmlns="http://www.w3.org/2000/svg" xmlns:xlink="http://www.w3.org/1999/xlink" x="0px" y="0px"
	 width="48px" height="96px" viewBox="0 0 48 96" enable-background="new 0 0 48 96" xml:space="preserve">
<path fill="#454545" d="M24,1c12.682,0,23,10.318,23,23c0,12.682-10.318,23-23,23C11.318,47,1,36.682,1,24C1,11.318,11.318,1,24,1
	 M24,0C10.745,0,0,10.745,0,24c0,13.254,10.745,24,24,24c13.254,0,24-10.746,24-24C48,10.745,37.254,0,24,0L24,0z"/>
<g>
	<path fill="#454545" d="M24,15.989c-2.223,0-4.027-1.789-4.027-3.996C19.973,9.788,21.777,8,24,8c2.225,0,4.027,1.788,4.027,3.994
		S26.225,15.989,24,15.989z"/>
	<path fill="#454545" d="M36.068,32.535l-3.17-11.044c-1.27-4.414-4.963-4.276-4.963-4.276h-7.874c0,0-3.694-0.138-4.961,4.276
		l-3.17,11.044c-0.304,1.031,0.266,1.82,1.168,2.078c0.9,0.259,1.823-0.195,2.061-1.021l3.083-10.764l1.506-0.003L14.818,40H33.18
		l-4.928-17.175l1.504,0.003l3.083,10.764c0.237,0.826,1.159,1.28,2.062,1.021C35.803,34.355,36.373,33.566,36.068,32.535z
		 M29.953,33.025c0,3.287-2.666,5.955-5.952,5.955c-3.29,0-5.955-2.668-5.955-5.955c0-3.289,2.665-5.952,5.955-5.952
		C27.287,27.074,29.953,29.736,29.953,33.025z"/>
	<path fill="#454545" d="M25.281,31.577c-0.717-0.337-1.02-1.188-0.682-1.904c0.338-0.713,1.189-1.019,1.903-0.68
		s1.019,1.192,0.681,1.905S25.994,31.917,25.281,31.577z"/>
	<path fill="#454545" d="M26.613,33.57c-0.141,0.3-0.896,1.887-1.047,2.205c-0.422,0.893-1.491,1.271-2.385,0.853
		c-0.291-0.142-0.514-0.354-0.699-0.589c-0.282-0.357-0.474-1.311-0.474-1.311c-0.297,0.209-1.057,0.688-1.37,0.912
		c-0.287,0.197-0.682,0.131-0.883-0.154c-0.203-0.285-0.133-0.68,0.151-0.883c0.452-0.315,1.706-1.168,1.706-1.168
		c0.383-0.27,0.908-0.183,1.177,0.203l0.532,1.08l0.847-1.712l-0.739-0.216c-0.162-0.047-0.297-0.159-0.375-0.311l-0.727-1.394
		c-0.158-0.302-0.041-0.675,0.263-0.831c0.302-0.158,0.673-0.04,0.832,0.26c0,0,0.437,0.84,0.604,1.164
		c0.397,0.115,2.02,0.588,2.02,0.588c0.088,0.026,0.162,0.076,0.229,0.135C26.66,32.65,26.812,33.146,26.613,33.57z"/>
</g>
<g>
	<path fill="#989898" d="M43.812,60.338c0.194,0.329,0.381,0.664,0.56,1.003l0.749-0.749c-0.184-0.336-0.372-0.667-0.569-0.994
		L43.812,60.338z"/>
	<path fill="#989898" d="M46.377,66.703c0.102,0.428,0.189,0.859,0.268,1.296l0.862-0.862c-0.088-0.426-0.188-0.847-0.299-1.264
		L46.377,66.703z"/>
	<path fill="#989898" d="M42.633,58.541c0.221,0.303,0.432,0.611,0.637,0.926l0.73-0.73c-0.207-0.312-0.422-0.617-0.643-0.918
		L42.633,58.541z"/>
	<path fill="#989898" d="M44.841,62.286c0.167,0.358,0.325,0.721,0.476,1.088l0.771-0.772c-0.154-0.363-0.316-0.721-0.488-1.074
		L44.841,62.286z"/>
	<path fill="#989898" d="M45.703,64.398c0.138,0.391,0.263,0.785,0.379,1.185l0.809-0.81c-0.123-0.392-0.258-0.778-0.399-1.162
		L45.703,64.398z"/>
	<path fill="#989898" d="M41.312,56.883c0.244,0.279,0.479,0.562,0.711,0.854l0.72-0.719c-0.231-0.289-0.47-0.572-0.716-0.851
		L41.312,56.883z"/>
	<path fill="#989898" d="M30.416,49.917c0.398,0.116,0.794,0.242,1.184,0.379l0.787-0.787c-0.383-0.143-0.771-0.276-1.162-0.401
		L30.416,49.917z"/>
	<path fill="#989898" d="M32.626,50.686c0.367,0.148,0.729,0.307,1.089,0.475l0.758-0.758c-0.354-0.172-0.711-0.336-1.074-0.489
		L32.626,50.686z"/>
	<path fill="#989898" d="M38.264,53.979c0.291,0.229,0.574,0.467,0.854,0.709l0.717-0.715c-0.277-0.244-0.562-0.482-0.85-0.714
		L38.264,53.979z"/>
	<path fill="#989898" d="M36.534,52.73c0.313,0.205,0.622,0.416,0.926,0.637l0.724-0.725c-0.301-0.221-0.607-0.435-0.918-0.643
		L36.534,52.73z"/>
	<path fill="#989898" d="M34.659,51.629c0.34,0.178,0.674,0.364,1.003,0.559L36.4,51.45c-0.325-0.197-0.656-0.388-0.993-0.569
		L34.659,51.629z"/>
	<path fill="#989898" d="M46.768,75.244c-0.093,0.648-0.213,1.29-0.358,1.921l1.272-1.272c0.096-0.588,0.168-1.183,0.221-1.783
		L46.768,75.244z"/>
	<path fill="#989898" d="M5.054,58.98c1.598-2.318,3.609-4.33,5.927-5.928l2.747-2.746c-1.366,0.647-2.659,1.422-3.868,2.305
		l-5.248,5.248c-0.883,1.209-1.657,2.502-2.305,3.869L5.054,58.98z"/>
	<path fill="#989898" d="M1.066,70.337l-1.051,1.052C0.01,71.592,0,71.795,0,72c0,0.316,0.012,0.629,0.024,0.941l0.977-0.977
		C1.002,71.417,1.028,70.875,1.066,70.337z"/>
	<path fill="#989898" d="M24.035,94.999l-0.977,0.978C23.371,95.988,23.684,96,24,96c0.205,0,0.408-0.011,0.611-0.016l1.052-1.051
		C25.125,94.973,24.583,94.998,24.035,94.999z"/>
	<path fill="#989898" d="M23.965,49.001l0.977-0.977C24.629,48.012,24.316,48,24,48c-0.205,0-0.408,0.01-0.612,0.016l-1.051,1.05
		C22.875,49.027,23.417,49.002,23.965,49.001z"/>
	<path fill="#989898" d="M7.363,87.855L6.648,88.57c0.254,0.267,0.515,0.525,0.781,0.781l0.714-0.716
		C7.877,88.383,7.617,88.122,7.363,87.855z"/>
	<path fill="#989898" d="M46.934,73.663l1.051-1.052C47.988,72.408,48,72.205,48,72c0-0.316-0.012-0.629-0.023-0.941l-0.978,0.977
		C46.998,72.583,46.973,73.125,46.934,73.663z"/>
	<path fill="#989898" d="M46.669,79.881c0.252-0.724,0.47-1.462,0.651-2.215l-1.454,1.455c-0.29,0.886-0.632,1.748-1.021,2.584
		L46.669,79.881z"/>
	<path fill="#989898" d="M28.001,49.355c0.437,0.076,0.868,0.166,1.296,0.267l0.83-0.83c-0.417-0.11-0.838-0.211-1.264-0.299
		L28.001,49.355z"/>
	<path fill="#989898" d="M46.827,69.23c0.058,0.473,0.104,0.949,0.131,1.432l0.933-0.932c-0.045-0.469-0.099-0.935-0.168-1.395
		L46.827,69.23z"/>
	<path fill="#989898" d="M40.637,56.145l0.715-0.715c-0.254-0.267-0.515-0.527-0.781-0.781l-0.715,0.716
		C40.122,55.617,40.383,55.877,40.637,56.145z"/>
	<path fill="#989898" d="M29.165,94.408c-0.631,0.146-1.271,0.267-1.921,0.357l-1.137,1.137c0.603-0.053,1.197-0.125,1.785-0.223
		L29.165,94.408z"/>
	<path fill="#989898" d="M13.341,92.371c-0.34-0.18-0.674-0.364-1.003-0.559l-0.739,0.737c0.326,0.197,0.657,0.388,0.994,0.569
		L13.341,92.371z"/>
	<path fill="#989898" d="M15.374,93.314c-0.368-0.148-0.73-0.308-1.088-0.475l-0.758,0.758c0.353,0.172,0.71,0.336,1.073,0.489
		L15.374,93.314z"/>
	<path fill="#989898" d="M11.466,91.27c-0.314-0.205-0.623-0.416-0.926-0.637l-0.724,0.725c0.301,0.222,0.607,0.437,0.919,0.644
		L11.466,91.27z"/>
	<path fill="#989898" d="M17.583,94.082c-0.399-0.116-0.794-0.241-1.184-0.379l-0.787,0.787c0.383,0.143,0.77,0.277,1.162,0.4
		L17.583,94.082z"/>
	<path fill="#989898" d="M9.736,90.021c-0.29-0.229-0.575-0.467-0.854-0.711l-0.716,0.717c0.278,0.244,0.562,0.482,0.851,0.715
		L9.736,90.021z"/>
	<path fill="#989898" d="M43.391,86.139c0.883-1.209,1.656-2.504,2.305-3.869l-2.744,2.744c-1.6,2.322-3.614,4.338-5.938,5.938
		l-2.744,2.744c1.365-0.647,2.66-1.422,3.869-2.305L43.391,86.139z"/>
	<path fill="#989898" d="M6.688,87.116c-0.243-0.278-0.48-0.563-0.71-0.853l-0.719,0.719c0.231,0.289,0.469,0.572,0.713,0.851
		L6.688,87.116z"/>
	<path fill="#989898" d="M33.705,92.846c-0.836,0.391-1.698,0.73-2.584,1.021l-1.455,1.454c0.753-0.182,1.491-0.399,2.215-0.651
		L33.705,92.846z"/>
	<path fill="#989898" d="M25.339,49.042c0.481,0.028,0.958,0.074,1.433,0.131l0.895-0.895c-0.461-0.07-0.926-0.125-1.395-0.168
		L25.339,49.042z"/>
	<path fill="#989898" d="M19.999,94.645c-0.436-0.076-0.868-0.166-1.296-0.268l-0.83,0.831c0.417,0.108,0.838,0.211,1.264,0.299
		L19.999,94.645z"/>
	<path fill="#989898" d="M22.662,94.958c-0.482-0.026-0.958-0.073-1.432-0.131l-0.895,0.896c0.46,0.069,0.926,0.123,1.394,0.168
		L22.662,94.958z"/>
	<path fill="#989898" d="M1.233,68.757c0.092-0.649,0.214-1.291,0.359-1.923l-1.273,1.273c-0.096,0.588-0.169,1.183-0.221,1.785
		L1.233,68.757z"/>
	<path fill="#989898" d="M2.134,64.878c0.29-0.886,0.631-1.749,1.021-2.585L1.33,64.118c-0.251,0.723-0.47,1.462-0.652,2.215
		L2.134,64.878z"/>
	<path fill="#989898" d="M1.173,74.771c-0.057-0.475-0.103-0.951-0.131-1.434L0.11,74.271c0.044,0.469,0.098,0.934,0.168,1.394
		L1.173,74.771z"/>
	<path fill="#989898" d="M5.367,85.46c-0.22-0.304-0.432-0.612-0.637-0.926L4,85.266c0.208,0.312,0.422,0.617,0.643,0.918
		L5.367,85.46z"/>
	<path fill="#989898" d="M14.293,51.156c0.835-0.391,1.698-0.732,2.585-1.021l1.455-1.455c-0.753,0.183-1.492,0.4-2.216,0.652
		L14.293,51.156z"/>
	<path fill="#989898" d="M18.834,49.592c0.632-0.146,1.272-0.267,1.923-0.359l1.135-1.134c-0.602,0.052-1.197,0.125-1.785,0.221
		L18.834,49.592z"/>
	<path fill="#989898" d="M4.188,83.662c-0.195-0.329-0.381-0.663-0.559-1.003L2.88,83.407c0.182,0.337,0.372,0.668,0.569,0.993
		L4.188,83.662z"/>
	<path fill="#989898" d="M3.159,81.715c-0.167-0.357-0.325-0.722-0.475-1.089l-0.772,0.772c0.154,0.362,0.318,0.721,0.489,1.074
		L3.159,81.715z"/>
	<path fill="#989898" d="M1.623,77.297c-0.101-0.428-0.19-0.859-0.267-1.296l-0.862,0.862c0.088,0.426,0.189,0.847,0.299,1.264
		L1.623,77.297z"/>
	<path fill="#989898" d="M2.296,79.6c-0.137-0.39-0.263-0.783-0.379-1.184l-0.809,0.809c0.124,0.393,0.258,0.779,0.4,1.162
		L2.296,79.6z"/>
</g>
<g>
	<path fill="#989898" d="M29.902,81.764l1.156-1.156l-0.35-1.215l-0.818,0.819c0.036,0.267,0.062,0.537,0.062,0.813
		C29.953,81.275,29.934,81.521,29.902,81.764z"/>
	<polygon fill="#989898" points="31.875,78.229 32.225,79.441 34.967,76.699 34.619,75.484 	"/>
	<path fill="#989898" d="M25.814,75.357c0.383,0.121,0.746,0.281,1.09,0.475l2.162-2.164l-0.348-1.214L25.814,75.357z"/>
	<path fill="#989898" d="M29.383,74.768l-1.636,1.635c0.287,0.233,0.551,0.492,0.789,0.773l1.194-1.193L29.383,74.768z"/>
	<path fill="#989898" d="M30.395,78.294l-0.348-1.214l-0.924,0.924c0.197,0.336,0.365,0.691,0.495,1.066L30.395,78.294z"/>
	<path fill="#989898" d="M34.9,82.613c0.06-0.018,0.113-0.043,0.17-0.064l1.009-1.008c0.092-0.295,0.101-0.634-0.011-1.006
		l-0.123-0.424l-2.369,2.369C33.957,82.686,34.43,82.748,34.9,82.613z"/>
	<path fill="#989898" d="M32.538,80.542l0.301,1.05c0.017,0.055,0.041,0.102,0.062,0.151l2.73-2.729l-0.349-1.216L32.538,80.542z"/>
	<path fill="#989898" d="M19.633,65.241c-1.006,0.114-3.528,0.753-4.532,4.25l-0.113,0.395L19.633,65.241z"/>
	<path fill="#989898" d="M30.234,72.501l2.74-2.741l-0.076-0.269c-0.094-0.325-0.203-0.618-0.32-0.896l-2.691,2.689L30.234,72.501z"
		/>
	<path fill="#989898" d="M15.16,81.592l0.616-2.148l-3.031,3.031c0.111,0.055,0.229,0.104,0.354,0.14
		c0.384,0.11,0.769,0.085,1.106-0.038l0.935-0.936C15.146,81.623,15.155,81.607,15.16,81.592z"/>
	<path fill="#989898" d="M16.971,75.271l-4.949,4.949l-0.091,0.314c-0.141,0.479-0.088,0.9,0.092,1.244l4.32-4.318L16.971,75.271z"
		/>
	<polygon fill="#989898" points="22.636,65.215 21.073,65.215 14.418,71.87 13.79,74.062 	"/>
	<path fill="#989898" d="M18.448,75.355L28.54,65.264c-0.37-0.057-0.604-0.049-0.604-0.049h-0.908l-7.949,7.949L18.448,75.355z"/>
	<path fill="#989898" d="M24.734,86.932c-0.24,0.028-0.484,0.049-0.733,0.049c-0.277,0-0.549-0.024-0.816-0.062L22.103,88h1.563
		L24.734,86.932z"/>
	<path fill="#989898" d="M22.044,86.645c-0.375-0.129-0.731-0.297-1.067-0.494L19.126,88h1.563L22.044,86.645z"/>
	<path fill="#989898" d="M31.723,82.921l-0.349-1.214L29.25,83.83c-0.557,1.039-1.409,1.893-2.448,2.447L25.08,88h1.562
		L31.723,82.921z"/>
	<path fill="#989898" d="M18.805,83.932c-0.192-0.345-0.353-0.707-0.475-1.089l-2.85,2.851l-0.629,2.191L18.805,83.932z"/>
	<path fill="#989898" d="M20.149,85.562c-0.281-0.237-0.541-0.502-0.773-0.789L16.15,88h1.563L20.149,85.562z"/>
	<polygon fill="#989898" points="32.387,85.234 32.038,84.02 28.059,88 29.62,88 	"/>
	<polygon fill="#989898" points="33.05,87.547 32.701,86.333 31.034,88 32.598,88 	"/>
	<path fill="#989898" d="M23.036,75.158c0.315-0.053,0.636-0.085,0.965-0.085c0.219,0,0.435,0.014,0.647,0.036l3.756-3.754
		l-0.152-0.53l0.682,0.001l3.162-3.162c-0.214-0.339-0.441-0.633-0.682-0.885L23.036,75.158z"/>
	<polygon fill="#989898" points="31.213,75.914 31.561,77.129 34.305,74.386 33.955,73.172 	"/>
	<polygon fill="#989898" points="30.55,73.6 30.896,74.814 33.641,72.073 33.291,70.859 	"/>
	<path fill="#989898" d="M17.878,77.34l-0.629,2.191l1.781-1.781c0.444-0.672,1.02-1.248,1.691-1.691l9.936-9.936
		c-0.345-0.242-0.688-0.421-1.011-0.551L17.878,77.34z"/>
	<polygon fill="#989898" points="17.539,73.289 18.166,71.1 13.22,76.045 12.591,78.236 	"/>
	<polygon fill="#989898" points="18.437,70.828 19.749,70.825 19.647,71.18 25.611,65.215 24.05,65.215 	"/>
	<path fill="#989898" d="M18.083,81.676c-0.023-0.214-0.037-0.431-0.037-0.65c0-0.327,0.034-0.646,0.084-0.961l-1.45,1.451
		l-0.63,2.193L18.083,81.676z"/>
</g>
<g>
	<path fill="#989898" d="M25.58,80.132c-0.364-0.106-0.855-0.249-1.21-0.353l-0.987,0.986c0.016,0.008,0.029,0.021,0.046,0.024
		l0.739,0.216l-0.527,1.064L25.58,80.132z"/>
	<path fill="#989898" d="M22.78,79.955l0.915-0.914c-0.144-0.277-0.273-0.525-0.273-0.525c-0.095-0.179-0.267-0.281-0.452-0.312
		L22.273,78.9c0.01,0.062,0.023,0.127,0.054,0.187L22.78,79.955z"/>
	<path fill="#989898" d="M25.281,79.577c0.234,0.112,0.484,0.147,0.726,0.128l1.306-1.307c0.033-0.422-0.123-0.836-0.429-1.133
		l-2.014,2.014C24.986,79.398,25.122,79.502,25.281,79.577z"/>
	<path fill="#989898" d="M19.906,82.604c-0.163,0.117-0.246,0.297-0.256,0.482l0.983-0.982
		C20.35,82.297,20.073,82.486,19.906,82.604z"/>
	<path fill="#989898" d="M26.613,81.57c0.15-0.323,0.098-0.687-0.106-0.951l-3.731,3.73c0.12,0.107,0.252,0.203,0.406,0.277
		c0.23,0.107,0.472,0.161,0.712,0.168l2.264-2.266C26.359,82.105,26.55,81.706,26.613,81.57z"/>
	<path fill="#989898" d="M22.789,81.639c-0.039-0.057-0.093-0.092-0.142-0.136l-2.235,2.233c0.079-0.016,0.156-0.049,0.226-0.096
		c0.313-0.226,1.073-0.703,1.37-0.912c0,0,0.08,0.391,0.21,0.766l0.995-0.994L22.789,81.639z"/>
	<path fill="#989898" d="M25.577,56.318c-0.396-0.166-0.826-0.254-1.274-0.289l-4.296,4.297c0.038,0.443,0.132,0.869,0.303,1.259
		L25.577,56.318z"/>
	<path fill="#989898" d="M27.705,61.561l-2.092,2.09C26.552,63.242,27.305,62.494,27.705,61.561z"/>
	<path fill="#989898" d="M28.012,59.839c-0.018-0.455-0.107-0.891-0.268-1.294l-5.174,5.173c0.408,0.154,0.845,0.245,1.304,0.259
		L28.012,59.839z"/>
	<path fill="#989898" d="M26.459,56.852l-5.606,5.606c0.231,0.29,0.495,0.55,0.796,0.767l5.587-5.588
		C27.016,57.339,26.753,57.078,26.459,56.852z"/>
	<path fill="#989898" d="M24.6,77.673c-0.092,0.193-0.132,0.397-0.135,0.599l1.41-1.41C25.348,76.866,24.842,77.163,24.6,77.673z"/>
	<path fill="#989898" d="M20.203,58.717l2.48-2.48C21.515,56.641,20.601,57.555,20.203,58.717z"/>
</g>
</svg>
