<?xml version="1.0" encoding="utf-8"?>
<!-- Generator: Adobe Illustrator 16.0.0, SVG Export Plug-In . SVG Version: 6.00 Build 0)  -->
<!DOCTYPE svg PUBLIC "-//W3C//DTD SVG 1.1//EN" "http://www.w3.org/Graphics/SVG/1.1/DTD/svg11.dtd">
<svg version="1.1" id="Layer_1" xmlns="http://www.w3.org/2000/svg" xmlns:xlink="http://www.w3.org/1999/xlink" x="0px" y="0px"
	 width="42px" height="42px" viewBox="0 0 42 42" enable-background="new 0 0 42 42" xml:space="preserve">
<g id="Your_Icon">
	<path fill="#47428D" d="M24.666,20.849c0.133-0.123,0.321-0.097,0.421,0.049L37.37,39.47c0.099,0.148,0.29,0.174,0.425,0.053
		l1.612-1.44c0.132-0.12,0.189-0.356,0.132-0.524l-8.077-22.389c-0.061-0.167,0-0.402,0.131-0.524l1.797-1.604
		c0.131-0.117,3.1-2.802,5.557-5.039c2.461-2.233,3.695-5.062,2.723-6.148c-0.971-1.085-3.906-0.171-6.409,2.033
		c-1.952,1.721-5.491,4.847-5.618,4.971l-1.791,1.6c-0.137,0.121-0.377,0.152-0.539,0.078L5.944,0.044
		C5.783-0.037,5.543-0.003,5.409,0.119l-1.61,1.442c-0.132,0.115-0.131,0.31,0.007,0.423l17.108,14.25
		c0.136,0.116,0.142,0.307,0.006,0.425l-3.501,3.131c-0.133,0.125-0.346,0.325-0.479,0.443l-8.128,8.449
		c-0.116,0.135-0.348,0.18-0.513,0.106l-7.254-3.2c-0.165-0.072-0.407-0.033-0.54,0.088l-0.408,0.365
		c-0.134,0.118-0.128,0.309,0.011,0.421l6.265,5.04c0.138,0.111,0.194,0.342,0.117,0.5c0,0-0.63,1.367-0.361,1.667
		s1.695-0.178,1.695-0.178c0.169-0.05,0.391,0.021,0.489,0.175l4.313,6.779c0.099,0.156,0.286,0.178,0.422,0.056l0.407-0.362
		c0.136-0.123,0.2-0.357,0.142-0.529l-2.383-7.561c-0.052-0.171,0.021-0.396,0.167-0.498l9.287-7.152
		c0.138-0.115,0.365-0.303,0.498-0.428L24.666,20.849z"/>
</g>
</svg>
