<?xml version="1.0" encoding="utf-8"?>
<!-- Generator: Adobe Illustrator 16.0.0, SVG Export Plug-In . SVG Version: 6.00 Build 0)  -->
<!DOCTYPE svg PUBLIC "-//W3C//DTD SVG 1.1//EN" "http://www.w3.org/Graphics/SVG/1.1/DTD/svg11.dtd">
<svg version="1.1" id="Layer_1" xmlns="http://www.w3.org/2000/svg" xmlns:xlink="http://www.w3.org/1999/xlink" x="0px" y="0px"
	 width="16px" height="16px" viewBox="0 0 16 16" enable-background="new 0 0 16 16" xml:space="preserve">
<path fill="#158CCC" d="M7.97,0C3.568,0,0,3.568,0,7.97c0,4.401,3.568,7.97,7.97,7.97c4.401,0,7.969-3.568,7.969-7.97
	C15.938,3.568,12.371,0,7.97,0z M6.679,12.688c-0.519,0-0.879-0.244-0.879-0.792c0-0.691,0.491-1.872,0.591-2.117L7.4,7.241
	c0.101-0.259-0.029-0.389-0.144-0.389c-0.533,0-1.226,1.254-1.484,1.254c-0.101,0-0.187-0.102-0.187-0.188
	c0-0.261,0.633-0.866,0.82-1.052C6.982,6.32,7.732,5.901,8.568,5.901c0.618,0,1.281,0.375,0.763,1.774l-1.038,2.811
	c-0.085,0.215-0.244,0.576-0.244,0.806c0,0.101,0.057,0.202,0.172,0.202c0.432,0,1.225-1.227,1.427-1.227
	c0.072,0,0.172,0.088,0.172,0.219C9.82,10.901,8.135,12.688,6.679,12.688z M9.158,5.384c-0.59,0-0.98-0.391-0.98-0.982
	c0-0.633,0.547-1.151,1.182-1.151c0.576,0,0.994,0.389,0.994,0.979C10.354,4.894,9.808,5.384,9.158,5.384z"/>
</svg>
