<?xml version="1.0" encoding="utf-8"?>
<!-- Generator: Adobe Illustrator 16.0.0, SVG Export Plug-In . SVG Version: 6.00 Build 0)  -->
<!DOCTYPE svg PUBLIC "-//W3C//DTD SVG 1.1//EN" "http://www.w3.org/Graphics/SVG/1.1/DTD/svg11.dtd">
<svg version="1.1" id="Layer_1" xmlns="http://www.w3.org/2000/svg" xmlns:xlink="http://www.w3.org/1999/xlink" x="0px" y="0px"
	 width="21px" height="21px" viewBox="0 0 21 21" enable-background="new 0 0 21 21" xml:space="preserve">
<path fill="#FFFFFF" d="M10.5,0.875c5.307,0,9.625,4.318,9.625,9.625c0,5.307-4.318,9.625-9.625,9.625S0.875,15.807,0.875,10.5
	S5.193,0.875,10.5,0.875 M10.5,0C4.701,0,0,4.701,0,10.5S4.701,21,10.5,21S21,16.299,21,10.5S16.299,0,10.5,0L10.5,0z"/>
<g>
	<path fill="#FFFFFF" d="M10.5,4.375c1.952,0,3.535,1.692,3.535,3.777c0,2.087-1.583,3.777-3.535,3.777
		c-1.953,0-3.535-1.69-3.535-3.777C6.965,6.066,8.547,4.375,10.5,4.375z"/>
	<path fill="#FFFFFF" d="M16.196,16.821v-1.945c0-1.959-0.992-2.991-2.499-3.487c-0.808,0.887-1.941,1.438-3.197,1.438
		c-1.255,0-2.389-0.554-3.197-1.438c-1.508,0.497-2.499,1.528-2.499,3.487v1.943c1.567,1.244,3.543,1.993,5.695,1.993
		S14.629,18.063,16.196,16.821z"/>
	<ellipse fill="#FFFFFF" cx="10.5" cy="8.153" rx="3.535" ry="3.778"/>
</g>
</svg>
