<?xml version="1.0" encoding="utf-8"?>
<!-- Generator: Adobe Illustrator 16.0.0, SVG Export Plug-In . SVG Version: 6.00 Build 0)  -->
<!DOCTYPE svg PUBLIC "-//W3C//DTD SVG 1.1//EN" "http://www.w3.org/Graphics/SVG/1.1/DTD/svg11.dtd">
<svg version="1.1" id="Layer_1" xmlns="http://www.w3.org/2000/svg" xmlns:xlink="http://www.w3.org/1999/xlink" x="0px" y="0px"
	 width="60px" height="60px" viewBox="0 0 60 60" enable-background="new 0 0 60 60" xml:space="preserve">
<g>
	<path fill="#FFFFFF" d="M30.001-0.001C13.458-0.001,0,13.458,0,30.001C0,46.543,13.458,60,30.001,60C46.543,60,60,46.543,60,30.001
		C60,13.458,46.543-0.001,30.001-0.001z M30.001,55.578c-14.105,0-25.58-11.475-25.58-25.577c0-14.105,11.476-25.58,25.58-25.58
		c14.103,0,25.577,11.475,25.577,25.58C55.578,44.104,44.104,55.578,30.001,55.578z"/>
	<path fill="#FFFFFF" d="M41.363,18.983l-14.46,17.255l-8.327-9.126c-0.823-0.904-2.222-0.97-3.125-0.143
		c-0.902,0.823-0.965,2.22-0.142,3.122L25.34,41.086c0.419,0.459,1.012,0.721,1.632,0.721c0.015,0,0.032,0,0.047,0
		c0.637-0.014,1.237-0.303,1.647-0.79l16.087-19.191c0.783-0.938,0.66-2.33-0.274-3.116C43.542,17.923,42.15,18.053,41.363,18.983z"
		/>
</g>
</svg>
