<?xml version="1.0" encoding="utf-8"?>
<!-- Generator: Adobe Illustrator 16.0.0, SVG Export Plug-In . SVG Version: 6.00 Build 0)  -->
<!DOCTYPE svg PUBLIC "-//W3C//DTD SVG 1.1//EN" "http://www.w3.org/Graphics/SVG/1.1/DTD/svg11.dtd">
<svg version="1.1" id="Layer_1" xmlns="http://www.w3.org/2000/svg" xmlns:xlink="http://www.w3.org/1999/xlink" x="0px" y="0px"
	 width="32px" height="32px" viewBox="0 0 32 32" enable-background="new 0 0 32 32" xml:space="preserve">
<g>
	<path fill="#79BE43" d="M16,0C7.178,0,0,7.178,0,16c0,8.822,7.178,16,16,16c8.822,0,16-7.178,16-16C32,7.178,24.822,0,16,0z
		 M23.869,11.64l-8.58,10.236c-0.219,0.26-0.54,0.414-0.879,0.421c-0.008,0-0.018,0-0.025,0c-0.331,0-0.647-0.141-0.87-0.385
		l-5.349-5.863c-0.44-0.481-0.405-1.227,0.075-1.665c0.482-0.441,1.229-0.406,1.667,0.077l4.442,4.866l7.713-9.202
		c0.42-0.495,1.162-0.566,1.66-0.147C24.22,10.398,24.286,11.14,23.869,11.64z"/>
</g>
</svg>
