<?xml version="1.0" encoding="utf-8"?>
<!-- Generator: Adobe Illustrator 16.0.0, SVG Export Plug-In . SVG Version: 6.00 Build 0)  -->
<!DOCTYPE svg PUBLIC "-//W3C//DTD SVG 1.1//EN" "http://www.w3.org/Graphics/SVG/1.1/DTD/svg11.dtd">
<svg version="1.1" id="Layer_1" xmlns="http://www.w3.org/2000/svg" xmlns:xlink="http://www.w3.org/1999/xlink" x="0px" y="0px"
	 width="24px" height="24px" viewBox="0 0 24 24" enable-background="new 0 0 24 24" xml:space="preserve">
<path opacity="0.9" fill="#FFFFFF" enable-background="new    " d="M12,1c6.064,0,11,4.935,11,11c0,6.064-4.936,11-11,11
	C5.935,23,1,18.064,1,12C1,5.935,5.935,1,12,1 M12,0C5.373,0,0,5.373,0,12s5.373,12,12,12s12-5.373,12-12S18.627,0,12,0L12,0z"/>
<g opacity="0.9">
	<path fill="#FFFFFF" d="M12,5c2.23,0,4.04,1.933,4.04,4.316c0,2.385-1.81,4.317-4.04,4.317c-2.231,0-4.04-1.933-4.04-4.317
		C7.96,6.933,9.769,5,12,5z"/>
	<path fill="#FFFFFF" d="M18.51,19.225v-2.223c0-2.24-1.133-3.418-2.855-3.986c-0.924,1.014-2.219,1.646-3.653,1.646
		c-1.434,0-2.73-0.634-3.654-1.646c-1.724,0.568-2.855,1.746-2.855,3.986v2.221C7.282,20.645,9.541,21.5,12,21.5
		S16.719,20.645,18.51,19.225z"/>
	<ellipse fill="#FFFFFF" cx="12" cy="9.317" rx="4.04" ry="4.317"/>
</g>
</svg>
