<?xml version="1.0" encoding="utf-8"?>
<!-- Generator: Adobe Illustrator 16.0.0, SVG Export Plug-In . SVG Version: 6.00 Build 0)  -->
<!DOCTYPE svg PUBLIC "-//W3C//DTD SVG 1.1//EN" "http://www.w3.org/Graphics/SVG/1.1/DTD/svg11.dtd">
<svg version="1.1" id="Layer_1" xmlns="http://www.w3.org/2000/svg" xmlns:xlink="http://www.w3.org/1999/xlink" x="0px" y="0px"
	 width="32px" height="32px" viewBox="0 0 32 32" enable-background="new 0 0 32 32" xml:space="preserve">
<path fill="#FFFFFF" enable-background="new    " d="M16,1.333c8.086,0,14.667,6.58,14.667,14.667
	c0,8.086-6.581,14.667-14.667,14.667C7.914,30.667,1.333,24.086,1.333,16C1.333,7.914,7.914,1.333,16,1.333 M16,0
	C7.164,0,0,7.164,0,16s7.164,16,16,16s16-7.164,16-16S24.836,0,16,0L16,0z"/>
<g>
	<path fill="#FFFFFF" d="M16,6.667c2.974,0,5.387,2.578,5.387,5.755c0,3.18-2.413,5.755-5.387,5.755
		c-2.975,0-5.387-2.576-5.387-5.755C10.613,9.244,13.025,6.667,16,6.667z"/>
	<path fill="#FFFFFF" d="M24.68,25.633v-2.964c0-2.986-1.511-4.557-3.808-5.314c-1.231,1.352-2.958,2.193-4.871,2.193
		c-1.912,0-3.64-0.845-4.872-2.193c-2.299,0.758-3.807,2.328-3.807,5.314v2.961c2.387,1.896,5.399,3.037,8.677,3.037
		S22.292,27.526,24.68,25.633z"/>
	<ellipse fill="#FFFFFF" cx="16" cy="12.423" rx="5.387" ry="5.756"/>
</g>
</svg>
