<?xml version="1.0" encoding="UTF-8" standalone="no"?>
<svg width="60px" height="60px" viewBox="0 0 60 60" version="1.1" xmlns="http://www.w3.org/2000/svg" xmlns:xlink="http://www.w3.org/1999/xlink" xmlns:sketch="http://www.bohemiancoding.com/sketch/ns">
    <title>icon-lrg-white-tick</title>
    <description>Created with Sketch (http://www.bohemiancoding.com/sketch)</description>
    <defs></defs>
    <g id="Page 1" stroke="none" stroke-width="1" fill="none" fill-rule="evenodd">
        <g id="Layer_1" fill="#FFFFFF">
            <g id="Group">
                <path d="M30,0 C13.459,0 0,13.459 0,30 C0,46.542 13.459,59.999 30,59.999 C46.542,59.999 59.999,46.542 59.999,30 C59.999,13.458 46.542,0 30,0 L30,0 Z M30,55.577 C15.895,55.577 4.42,44.103 4.42,30 C4.42,15.896 15.895,4.42 30,4.42 C44.103,4.42 55.577,15.895 55.577,30 C55.577,44.103 44.103,55.577 30,55.577 L30,55.577 Z M30,55.577" id="Shape"></path>
                <path d="M41.363,18.984 L26.903,36.238 L18.575,27.112 C17.753,26.208 16.353,26.143 15.45,26.969 C14.548,27.792 14.485,29.189 15.308,30.092 L25.338,41.085 C25.757,41.544 26.351,41.806 26.971,41.806 L27.018,41.806 C27.655,41.793 28.255,41.504 28.665,41.016 L44.751,21.825 C45.535,20.888 45.412,19.496 44.477,18.71 C43.542,17.923 42.149,18.053 41.363,18.984 L41.363,18.984 Z M41.363,18.984" id="Shape"></path>
            </g>
        </g>
    </g>
</svg>