<?xml version="1.0" encoding="utf-8"?>
<!-- Generator: Adobe Illustrator 16.0.0, SVG Export Plug-In . SVG Version: 6.00 Build 0)  -->
<!DOCTYPE svg PUBLIC "-//W3C//DTD SVG 1.1//EN" "http://www.w3.org/Graphics/SVG/1.1/DTD/svg11.dtd">
<svg version="1.1" id="Layer_1" xmlns="http://www.w3.org/2000/svg" xmlns:xlink="http://www.w3.org/1999/xlink" x="0px" y="0px"
	 width="48px" height="96px" viewBox="0 0 48 96" enable-background="new 0 0 48 96" xml:space="preserve">
<path fill="#454545" d="M24,1c12.682,0,23,10.318,23,23c0,12.682-10.318,23-23,23C11.318,47,1,36.682,1,24C1,11.318,11.318,1,24,1
	 M24,0C10.745,0,0,10.745,0,24c0,13.254,10.745,24,24,24c13.254,0,24-10.746,24-24C48,10.745,37.254,0,24,0L24,0z"/>
<g>
	<path fill="#454545" d="M38.82,34.727c0,0-4.943,0-10.791,0v2.517v0.014c2.561,0,4.324,0,4.324,0c1.885,0,2.703-0.016,3.688-0.014
		h2.89c0.896,0,0.995-0.769,0.995-0.769v-0.643C39.928,35.832,39.992,34.727,38.82,34.727z"/>
	<path fill="#454545" d="M37.324,34.08c1.475,0,2.676-1.195,2.676-2.666c0-1.477-1.201-2.668-2.676-2.668s-2.672,1.191-2.672,2.668
		C34.652,32.885,35.85,34.08,37.324,34.08z"/>
	<path fill="#454545" d="M31.688,34.236c1.404,0,2.533-1.133,2.533-2.527c0-1.389-1.119-2.193-2.514-2.203l-3.678,0.391v4.343
		L31.688,34.236L31.688,34.236z"/>
	<path fill="#454545" d="M19.682,16.664c1.641,0,2.967-1.325,2.967-2.96c0-1.635-1.326-2.96-2.967-2.96
		c-1.638,0-2.966,1.325-2.966,2.96C16.716,15.337,18.044,16.664,19.682,16.664z"/>
	<path fill="#454545" d="M16.654,26.244c-0.008-0.014-0.021-0.021-0.026-0.037l-1.344-3.169l-0.003,6.147h4.018l0.877-0.871
		l-2.38-0.883C17.23,27.223,16.831,26.773,16.654,26.244z"/>
	<path fill="#454545" d="M17.506,25.965c0.129,0.293,0.371,0.525,0.674,0.635l4.584,1.689c0.586,0.258,1.272-0.01,1.53-0.598
		c0.257-0.588-0.01-1.271-0.599-1.529l-4.229-1.588l-1.307-3.117l0.852-0.314l1.11,2.67l3.22,1.185v-3.263l1.701,1.011l0.849,4.261
		c0.211,0.604,0.871,0.929,1.479,0.72c0.604-0.209,0.926-0.871,0.717-1.479l-0.953-4.104c-0.063-0.229-0.192-0.43-0.375-0.58
		c-0.487-0.539-2.958-3.246-3.134-3.43c-0.26-0.257-0.85-0.681-1.963-0.681H17.66c-2.272,0-2.711,2.267-2.246,3.438L17.506,25.965z"
		/>
	<path fill="#454545" d="M27.367,29.674H9.313C8.656,29.674,8,30.33,8,31.141c0,0.189,0.001,0.531,0.001,0.531L8,37.24
		c0,0,1.173,0,1.555,0h17.813L27.367,29.674L27.367,29.674z"/>
</g>
<g>
	<path fill="#989898" d="M43.812,60.338c0.194,0.329,0.381,0.664,0.56,1.003l0.749-0.749c-0.184-0.336-0.372-0.667-0.569-0.994
		L43.812,60.338z"/>
	<path fill="#989898" d="M42.633,58.541c0.221,0.303,0.432,0.611,0.637,0.926l0.73-0.73c-0.207-0.312-0.422-0.617-0.643-0.918
		L42.633,58.541z"/>
	<path fill="#989898" d="M45.703,64.398c0.138,0.391,0.263,0.785,0.379,1.185l0.809-0.81c-0.123-0.392-0.258-0.778-0.399-1.162
		L45.703,64.398z"/>
	<path fill="#989898" d="M28.001,49.355c0.437,0.076,0.868,0.166,1.296,0.267l0.83-0.83c-0.417-0.11-0.838-0.211-1.264-0.299
		L28.001,49.355z"/>
	<path fill="#989898" d="M41.312,56.883c0.244,0.279,0.479,0.562,0.711,0.854l0.72-0.719c-0.231-0.289-0.47-0.572-0.716-0.851
		L41.312,56.883z"/>
	<path fill="#989898" d="M32.626,50.686c0.367,0.148,0.729,0.307,1.089,0.475l0.758-0.758c-0.354-0.172-0.711-0.336-1.074-0.489
		L32.626,50.686z"/>
	<path fill="#989898" d="M46.377,66.703c0.102,0.428,0.189,0.859,0.268,1.296l0.862-0.862c-0.088-0.426-0.188-0.847-0.299-1.264
		L46.377,66.703z"/>
	<path fill="#989898" d="M34.659,51.629c0.34,0.178,0.674,0.364,1.003,0.559L36.4,51.45c-0.325-0.197-0.656-0.388-0.993-0.569
		L34.659,51.629z"/>
	<path fill="#989898" d="M36.534,52.73c0.313,0.205,0.622,0.416,0.926,0.637l0.724-0.725c-0.301-0.221-0.607-0.435-0.918-0.643
		L36.534,52.73z"/>
	<path fill="#989898" d="M38.264,53.979c0.291,0.229,0.574,0.467,0.854,0.709l0.717-0.715c-0.277-0.244-0.562-0.482-0.85-0.714
		L38.264,53.979z"/>
	<path fill="#989898" d="M44.841,62.286c0.167,0.358,0.325,0.721,0.476,1.088l0.771-0.772c-0.154-0.363-0.316-0.721-0.488-1.074
		L44.841,62.286z"/>
	<path fill="#989898" d="M1.066,70.337l-1.051,1.052C0.01,71.592,0,71.795,0,72c0,0.316,0.012,0.629,0.024,0.941l0.977-0.977
		C1.002,71.417,1.028,70.875,1.066,70.337z"/>
	<path fill="#989898" d="M46.827,69.23c0.058,0.473,0.104,0.949,0.131,1.432l0.933-0.932c-0.045-0.469-0.099-0.935-0.168-1.395
		L46.827,69.23z"/>
	<path fill="#989898" d="M7.363,87.855L6.648,88.57c0.254,0.267,0.515,0.525,0.781,0.781l0.714-0.716
		C7.877,88.383,7.617,88.122,7.363,87.855z"/>
	<path fill="#989898" d="M24.035,94.999l-0.977,0.978C23.371,95.988,23.684,96,24,96c0.205,0,0.408-0.011,0.611-0.016l1.052-1.051
		C25.125,94.973,24.583,94.998,24.035,94.999z"/>
	<path fill="#989898" d="M23.965,49.001l0.977-0.977C24.629,48.012,24.316,48,24,48c-0.205,0-0.408,0.01-0.612,0.016l-1.051,1.05
		C22.875,49.027,23.417,49.002,23.965,49.001z"/>
	<path fill="#989898" d="M5.054,58.98c1.598-2.318,3.609-4.33,5.927-5.928l2.747-2.746c-1.366,0.647-2.659,1.422-3.868,2.305
		l-5.248,5.248c-0.883,1.209-1.657,2.502-2.305,3.869L5.054,58.98z"/>
	<path fill="#989898" d="M40.637,56.145l0.715-0.715c-0.254-0.267-0.515-0.527-0.781-0.781l-0.715,0.716
		C40.122,55.617,40.383,55.877,40.637,56.145z"/>
	<path fill="#989898" d="M46.768,75.244c-0.093,0.648-0.213,1.29-0.358,1.921l1.272-1.272c0.096-0.588,0.168-1.183,0.221-1.783
		L46.768,75.244z"/>
	<path fill="#989898" d="M46.669,79.881c0.252-0.724,0.47-1.462,0.651-2.215l-1.454,1.455c-0.29,0.886-0.632,1.748-1.021,2.584
		L46.669,79.881z"/>
	<path fill="#989898" d="M46.934,73.663l1.051-1.052C47.988,72.408,48,72.205,48,72c0-0.316-0.012-0.629-0.023-0.941l-0.978,0.977
		C46.998,72.583,46.973,73.125,46.934,73.663z"/>
	<path fill="#989898" d="M30.416,49.917c0.398,0.116,0.794,0.242,1.184,0.379l0.787-0.787c-0.383-0.143-0.771-0.276-1.162-0.401
		L30.416,49.917z"/>
	<path fill="#989898" d="M15.374,93.314c-0.368-0.148-0.73-0.308-1.088-0.475l-0.758,0.758c0.353,0.172,0.71,0.336,1.073,0.489
		L15.374,93.314z"/>
	<path fill="#989898" d="M25.339,49.042c0.481,0.028,0.958,0.074,1.433,0.131l0.895-0.895c-0.461-0.07-0.926-0.125-1.395-0.168
		L25.339,49.042z"/>
	<path fill="#989898" d="M13.341,92.371c-0.34-0.18-0.674-0.364-1.003-0.559l-0.739,0.737c0.326,0.197,0.657,0.388,0.994,0.569
		L13.341,92.371z"/>
	<path fill="#989898" d="M6.688,87.116c-0.243-0.278-0.48-0.563-0.71-0.853l-0.719,0.719c0.231,0.289,0.469,0.572,0.713,0.851
		L6.688,87.116z"/>
	<path fill="#989898" d="M11.466,91.27c-0.314-0.205-0.623-0.416-0.926-0.637l-0.724,0.725c0.301,0.222,0.607,0.437,0.919,0.644
		L11.466,91.27z"/>
	<path fill="#989898" d="M9.736,90.021c-0.29-0.229-0.575-0.467-0.854-0.711l-0.716,0.717c0.278,0.244,0.562,0.482,0.851,0.715
		L9.736,90.021z"/>
	<path fill="#989898" d="M33.705,92.846c-0.836,0.391-1.698,0.73-2.584,1.021l-1.455,1.454c0.753-0.182,1.491-0.399,2.215-0.651
		L33.705,92.846z"/>
	<path fill="#989898" d="M43.391,86.139c0.883-1.209,1.656-2.504,2.305-3.869l-2.744,2.744c-1.6,2.322-3.614,4.338-5.938,5.938
		l-2.744,2.744c1.365-0.647,2.66-1.422,3.869-2.305L43.391,86.139z"/>
	<path fill="#989898" d="M29.165,94.408c-0.631,0.146-1.271,0.267-1.921,0.357l-1.137,1.137c0.603-0.053,1.197-0.125,1.785-0.223
		L29.165,94.408z"/>
	<path fill="#989898" d="M19.999,94.645c-0.436-0.076-0.868-0.166-1.296-0.268l-0.83,0.831c0.417,0.108,0.838,0.211,1.264,0.299
		L19.999,94.645z"/>
	<path fill="#989898" d="M22.662,94.958c-0.482-0.026-0.958-0.073-1.432-0.131l-0.895,0.896c0.46,0.069,0.926,0.123,1.394,0.168
		L22.662,94.958z"/>
	<path fill="#989898" d="M17.583,94.082c-0.399-0.116-0.794-0.241-1.184-0.379l-0.787,0.787c0.383,0.143,0.77,0.277,1.162,0.4
		L17.583,94.082z"/>
	<path fill="#989898" d="M2.134,64.878c0.29-0.886,0.631-1.749,1.021-2.585L1.33,64.118c-0.251,0.723-0.47,1.462-0.652,2.215
		L2.134,64.878z"/>
	<path fill="#989898" d="M1.233,68.757c0.092-0.649,0.214-1.291,0.359-1.923l-1.273,1.273c-0.096,0.588-0.169,1.183-0.221,1.785
		L1.233,68.757z"/>
	<path fill="#989898" d="M5.367,85.46c-0.22-0.304-0.432-0.612-0.637-0.926L4,85.266c0.208,0.312,0.422,0.617,0.643,0.918
		L5.367,85.46z"/>
	<path fill="#989898" d="M18.834,49.592c0.632-0.146,1.272-0.267,1.923-0.359l1.135-1.134c-0.602,0.052-1.197,0.125-1.785,0.221
		L18.834,49.592z"/>
	<path fill="#989898" d="M1.173,74.771c-0.057-0.475-0.103-0.951-0.131-1.434L0.11,74.271c0.044,0.469,0.098,0.934,0.168,1.394
		L1.173,74.771z"/>
	<path fill="#989898" d="M14.293,51.156c0.835-0.391,1.698-0.732,2.585-1.021l1.455-1.455c-0.753,0.183-1.492,0.4-2.216,0.652
		L14.293,51.156z"/>
	<path fill="#989898" d="M3.159,81.715c-0.167-0.357-0.325-0.722-0.475-1.089l-0.772,0.772c0.154,0.362,0.318,0.721,0.489,1.074
		L3.159,81.715z"/>
	<path fill="#989898" d="M4.188,83.662c-0.195-0.329-0.381-0.663-0.559-1.003L2.88,83.407c0.182,0.337,0.372,0.668,0.569,0.993
		L4.188,83.662z"/>
	<path fill="#989898" d="M1.623,77.297c-0.101-0.428-0.19-0.859-0.267-1.296l-0.862,0.862c0.088,0.426,0.189,0.847,0.299,1.264
		L1.623,77.297z"/>
	<path fill="#989898" d="M2.296,79.6c-0.137-0.39-0.263-0.783-0.379-1.184l-0.809,0.809c0.124,0.393,0.258,0.779,0.4,1.162
		L2.296,79.6z"/>
</g>
<g>
	<path fill="#989898" d="M25.042,70.746l0.165,0.827l1.768-1.769c-0.061-0.089-0.131-0.172-0.216-0.242
		c-0.102-0.111-0.291-0.32-0.524-0.578l-1.549,1.55L25.042,70.746z"/>
	<path fill="#989898" d="M26.954,75.781l1.18-1.18c-0.002-0.119-0.007-0.237-0.047-0.354l-0.219-0.942l-1.875,1.877
		C26.193,75.539,26.552,75.77,26.954,75.781z"/>
	<polygon fill="#989898" points="16.625,74.201 16.16,73.104 15.283,73.982 15.282,75.546 	"/>
	<path fill="#989898" d="M23.893,74.301l-1.756,1.758l0.627,0.23c0.211,0.093,0.431,0.097,0.643,0.062l0.949-0.949
		C24.423,74.975,24.249,74.557,23.893,74.301z"/>
	<path fill="#989898" d="M18.217,75.588l-0.421-0.156c-0.235-0.086-0.433-0.223-0.606-0.38l-1.909,1.908v0.226h1.338L18.217,75.588z
		"/>
	<polygon fill="#989898" points="16.862,72.402 17.318,73.509 19.107,71.721 18.646,70.619 	"/>
	<polygon fill="#989898" points="15.283,72.566 15.739,72.111 15.284,71.038 	"/>
	<polygon fill="#989898" points="20.176,76.314 19.248,75.971 18.033,77.186 19.299,77.186 	"/>
	<path fill="#989898" d="M18.18,74.6l0.749,0.275l1.82-1.818l-1.136-0.428l-1.765,1.766C17.948,74.477,18.055,74.555,18.18,74.6z"/>
	<path fill="#989898" d="M21.175,59.159l-4.04,4.039c0.19,0.321,0.438,0.602,0.732,0.831l4.142-4.143
		C21.779,59.594,21.498,59.348,21.175,59.159z"/>
	<path fill="#989898" d="M10.177,77.674H9.313C8.656,77.674,8,78.33,8,79.141c0,0.189,0.001,0.531,0.001,0.531v0.178L10.177,77.674z
		"/>
	<path fill="#989898" d="M30.354,82.727l-2.324,2.324v0.192v0.014c0.488,0,0.936,0,1.357,0l2.53-2.53
		C31.412,82.727,30.891,82.727,30.354,82.727z"/>
	<path fill="#989898" d="M33.331,82.727l-2.53,2.53c0.967,0,1.553,0,1.553,0c0.004,0,0.006,0,0.011,0l2.53-2.53
		C34.406,82.727,33.882,82.727,33.331,82.727z"/>
	<path fill="#989898" d="M17.858,65.452l-2.597,2.597c0.011,0.307,0.057,0.6,0.153,0.842l0.167,0.402l3.841-3.841H17.858z"/>
	<path fill="#989898" d="M19.682,58.744c-0.54,0-1.04,0.154-1.476,0.406l-1.086,1.086c-0.25,0.434-0.404,0.93-0.404,1.467
		c0,0.154,0.022,0.305,0.046,0.454l3.369-3.369C19.983,58.768,19.836,58.744,19.682,58.744z"/>
	<path fill="#989898" d="M19.682,64.664c0.201,0,0.397-0.021,0.587-0.059l2.321-2.321c0.038-0.188,0.059-0.382,0.059-0.58
		c0-0.313-0.062-0.608-0.152-0.892l-3.701,3.701C19.078,64.604,19.371,64.664,19.682,64.664z"/>
	<polygon fill="#989898" points="21.776,73.441 19.962,75.256 21.104,75.677 22.912,73.868 	"/>
	<path fill="#989898" d="M18.229,69.622l-0.069-0.165l0.371-0.137l3.804-3.805c-0.201-0.037-0.419-0.063-0.672-0.063h-0.826
		l-4.843,4.843L16.45,71.4L18.229,69.622z"/>
	<path fill="#989898" d="M19.796,71.031l4.342-4.342c-0.272-0.297-0.468-0.51-0.513-0.558c-0.067-0.065-0.158-0.143-0.272-0.221
		l-4.016,4.016L19.796,71.031z"/>
	<path fill="#989898" d="M14.567,77.674L8,84.241v0.999c0,0,0.255,0,0.564,0l7.566-7.566H14.567z"/>
	<path fill="#989898" d="M28.029,83.637l0.91-0.91c-0.301,0-0.604,0-0.91,0V83.637z"/>
	<polygon fill="#989898" points="28.029,79.098 28.029,80.66 31.121,77.568 29.373,77.754 	"/>
	<polygon fill="#989898" points="22.521,72.695 23.341,72.998 23.341,71.877 	"/>
	<path fill="#989898" d="M37.324,82.08c1.475,0,2.676-1.195,2.676-2.666c0-0.118-0.02-0.23-0.035-0.346l-2.977,2.978
		C37.1,82.061,37.209,82.08,37.324,82.08z"/>
	<polygon fill="#989898" points="27.368,84.298 27.368,82.734 24.863,85.24 26.426,85.24 	"/>
	<path fill="#989898" d="M37.87,82.727c-0.409,0-0.933,0-1.563,0l-2.527,2.527c0.633-0.003,1.119-0.008,1.572-0.01L37.87,82.727z"/>
	<polygon fill="#989898" points="27.367,81.32 27.367,79.759 21.886,85.24 23.449,85.24 	"/>
	<path fill="#989898" d="M39.919,83.654c-0.03-0.256-0.165-0.713-0.692-0.87l-2.459,2.459h1.563L39.919,83.654z"/>
	<path fill="#989898" d="M35.938,81.684l3.66-3.66c-0.195-0.317-0.451-0.594-0.758-0.806l-3.711,3.712
		C35.342,81.234,35.619,81.486,35.938,81.684z"/>
	<path fill="#989898" d="M31.688,82.236c0.313,0,0.61-0.064,0.889-0.168l1.479-1.479c0.104-0.274,0.166-0.569,0.166-0.88
		c0-0.266-0.052-0.501-0.127-0.723l-3.25,3.25H31.688z"/>
	<path fill="#989898" d="M20.346,71.896l1.143,0.42l1.853-1.854v-0.729l0.457,0.271l1.762-1.761
		c-0.246-0.27-0.502-0.551-0.746-0.817L20.346,71.896z"/>
	<polygon fill="#989898" points="13.153,77.674 11.591,77.674 8,81.264 8,82.827 	"/>
	<polygon fill="#989898" points="19.106,77.674 17.544,77.674 9.978,85.24 11.54,85.24 	"/>
	<polygon fill="#989898" points="25.441,72.753 25.701,74.059 27.602,72.158 27.307,70.889 	"/>
	<polygon fill="#989898" points="22.085,77.674 20.521,77.674 12.954,85.24 14.519,85.24 	"/>
	<polygon fill="#989898" points="27.367,78.346 27.367,77.674 26.477,77.674 18.91,85.24 20.472,85.24 	"/>
	<path fill="#989898" d="M28.029,82.239l1.397-0.001l4.103-4.104c-0.281-0.249-0.639-0.423-1.038-0.523l-4.462,4.463V82.239z"/>
	<path fill="#989898" d="M34.652,79.414c0,0.18,0.02,0.354,0.053,0.523l3.141-3.14c-0.169-0.032-0.343-0.053-0.521-0.053
		c-0.51,0-0.981,0.149-1.387,0.397l-0.89,0.889C34.802,78.436,34.652,78.904,34.652,79.414z"/>
	<polygon fill="#989898" points="25.062,77.674 23.5,77.674 15.933,85.24 17.496,85.24 	"/>
</g>
</svg>
