<?xml version="1.0" encoding="utf-8"?>
<!-- Generator: Adobe Illustrator 16.0.0, SVG Export Plug-In . SVG Version: 6.00 Build 0)  -->
<!DOCTYPE svg PUBLIC "-//W3C//DTD SVG 1.1//EN" "http://www.w3.org/Graphics/SVG/1.1/DTD/svg11.dtd">
<svg version="1.1" id="Layer_1" xmlns="http://www.w3.org/2000/svg" xmlns:xlink="http://www.w3.org/1999/xlink" x="0px" y="0px"
	 width="48px" height="96px" viewBox="0 0 48 96" enable-background="new 0 0 48 96" xml:space="preserve">
<path fill="#454545" d="M24,1c12.684,0,23,10.318,23,23c0,12.682-10.316,23-23,23C11.318,47,1,36.682,1,24C1,11.318,11.318,1,24,1
	 M24,0C10.745,0,0,10.745,0,24c0,13.254,10.745,24,24,24s24-10.746,24-24C48,10.745,37.255,0,24,0L24,0z"/>
<g>
	<g>
		<g>
			<path fill="#454545" d="M24.017,12.623c1.262,0,2.295-1.035,2.295-2.328c0-1.261-1.033-2.296-2.295-2.296
				c-1.293,0-2.295,1.035-2.295,2.296C21.722,11.588,22.724,12.623,24.017,12.623z M24.025,9.616c0.36,0,0.653,0.319,0.653,0.668
				c0,0.351-0.293,0.668-0.653,0.668c-0.394,0-0.688-0.318-0.688-0.668C23.337,9.936,23.632,9.616,24.025,9.616z"/>
			<path fill="#454545" d="M24.017,18.602c2.067,0,3.813-1.744,3.813-3.846c0-1.098-0.484-2.132-1.324-2.876
				c-0.55,0.873-1.486,1.356-2.488,1.356c-1.035,0-1.973-0.484-2.488-1.356c-0.872,0.744-1.357,1.778-1.357,2.876
				C20.171,16.857,21.915,18.602,24.017,18.602z"/>
			<path fill="#454545" d="M23.37,35.346c0,0.355,0.291,0.646,0.646,0.646c0.322,0,0.613-0.291,0.613-0.646
				c0-0.291-0.291-0.582-0.613-0.582C23.661,34.764,23.37,35.053,23.37,35.346z"/>
			<path fill="#454545" d="M27.766,19.668c0.389,0.68,0.612,1.486,0.612,2.264c0,1.616-0.938,3.134-2.392,3.845v2.394
				c0,0.904-0.646,1.713-1.552,1.908v3.877c0.646,0.192,1.067,0.776,1.067,1.392c0,0.84-0.681,1.521-1.487,1.521
				c-0.84,0-1.521-0.681-1.521-1.521c0-0.613,0.453-1.197,1.067-1.392v-3.877c-0.905-0.195-1.553-1.004-1.553-1.908v-2.394
				c-1.42-0.711-2.357-2.229-2.357-3.845c0-0.776,0.227-1.584,0.613-2.264c-2.683,0-4.881,2.197-4.881,4.88v12.187
				c0,0.97,0.613,1.714,1.584,1.714c1.002,0,1.616-0.744,1.616-1.714V26.457h0.871V40h9.113V26.457h0.843v10.277
				c0,0.969,0.614,1.713,1.616,1.713c0.969,0,1.582-0.744,1.582-1.713V24.549C32.613,21.898,30.448,19.668,27.766,19.668z"/>
			<path fill="#454545" d="M25.146,28.17v-2.909c1.39-0.614,2.359-1.747,2.359-3.329c0-0.81-0.291-1.617-0.842-2.264h-5.332
				c-0.518,0.646-0.841,1.455-0.841,2.264c0,1.582,0.97,2.714,2.358,3.329v2.909c0,0.613,0.519,1.098,1.164,1.098
				C24.63,29.268,25.146,28.783,25.146,28.17z"/>
		</g>
	</g>
</g>
<g>
	<path fill="#989898" d="M42.634,58.54c0.22,0.303,0.433,0.612,0.638,0.926L44,58.736c-0.207-0.312-0.422-0.618-0.643-0.92
		L42.634,58.54z"/>
	<path fill="#989898" d="M43.812,60.338c0.194,0.329,0.381,0.664,0.56,1.003l0.749-0.748c-0.182-0.336-0.372-0.667-0.569-0.993
		L43.812,60.338z"/>
	<path fill="#989898" d="M46.378,66.703c0.101,0.428,0.188,0.859,0.267,1.296l0.862-0.862c-0.088-0.426-0.188-0.847-0.299-1.264
		L46.378,66.703z"/>
	<path fill="#989898" d="M28.002,49.355c0.436,0.076,0.868,0.166,1.295,0.267l0.83-0.83c-0.417-0.11-0.838-0.211-1.264-0.299
		L28.002,49.355z"/>
	<path fill="#989898" d="M45.704,64.398c0.137,0.391,0.263,0.785,0.379,1.185l0.81-0.81c-0.125-0.392-0.259-0.778-0.401-1.162
		L45.704,64.398z"/>
	<path fill="#989898" d="M32.626,50.686c0.368,0.148,0.731,0.307,1.089,0.475l0.758-0.758c-0.354-0.172-0.711-0.336-1.074-0.49
		L32.626,50.686z"/>
	<path fill="#989898" d="M30.416,49.917c0.398,0.116,0.794,0.242,1.186,0.378l0.785-0.787c-0.383-0.143-0.77-0.277-1.162-0.4
		L30.416,49.917z"/>
	<path fill="#989898" d="M34.659,51.629c0.34,0.178,0.675,0.364,1.004,0.559l0.737-0.738c-0.325-0.197-0.656-0.387-0.992-0.569
		L34.659,51.629z"/>
	<path fill="#989898" d="M36.534,52.73c0.313,0.205,0.623,0.416,0.926,0.637l0.726-0.725c-0.303-0.221-0.609-0.435-0.92-0.643
		L36.534,52.73z"/>
	<path fill="#989898" d="M38.266,53.977c0.289,0.23,0.573,0.467,0.853,0.711l0.716-0.717c-0.277-0.244-0.561-0.481-0.85-0.713
		L38.266,53.977z"/>
	<path fill="#989898" d="M44.841,62.286c0.168,0.358,0.325,0.721,0.476,1.088l0.771-0.772c-0.154-0.362-0.316-0.721-0.488-1.074
		L44.841,62.286z"/>
	<path fill="#989898" d="M1.066,70.337l-1.051,1.052C0.01,71.592,0,71.795,0,72c0,0.316,0.012,0.63,0.024,0.941l0.977-0.977
		C1.002,71.417,1.028,70.876,1.066,70.337z"/>
	<path fill="#989898" d="M23.966,49.001l0.978-0.978C24.63,48.012,24.316,48,24,48c-0.205,0-0.408,0.01-0.611,0.016l-1.051,1.051
		C22.876,49.027,23.417,49.002,23.966,49.001z"/>
	<path fill="#989898" d="M5.053,58.98c1.598-2.318,3.609-4.33,5.928-5.928l2.747-2.746c-1.366,0.646-2.659,1.422-3.868,2.305
		l-5.249,5.248c-0.883,1.209-1.657,2.502-2.305,3.869L5.053,58.98z"/>
	<path fill="#989898" d="M24.035,94.999l-0.977,0.978C23.371,95.988,23.684,96,24,96c0.206,0,0.408-0.011,0.611-0.016l1.053-1.051
		C25.125,94.973,24.583,94.998,24.035,94.999z"/>
	<path fill="#989898" d="M7.363,87.855L6.648,88.57c0.254,0.267,0.515,0.525,0.781,0.781l0.715-0.716
		C7.877,88.383,7.617,88.122,7.363,87.855z"/>
	<path fill="#989898" d="M46.768,75.244c-0.093,0.648-0.213,1.29-0.358,1.922l1.272-1.273c0.096-0.588,0.168-1.183,0.221-1.783
		L46.768,75.244z"/>
	<path fill="#989898" d="M40.637,56.145l0.715-0.715c-0.254-0.267-0.515-0.527-0.781-0.781l-0.715,0.713
		C40.123,55.617,40.383,55.877,40.637,56.145z"/>
	<path fill="#989898" d="M46.669,79.881c0.252-0.723,0.47-1.462,0.651-2.214l-1.454,1.454c-0.289,0.886-0.632,1.748-1.021,2.584
		L46.669,79.881z"/>
	<path fill="#989898" d="M46.827,69.23c0.058,0.473,0.104,0.949,0.131,1.432l0.933-0.932c-0.045-0.47-0.099-0.935-0.168-1.396
		L46.827,69.23z"/>
	<path fill="#989898" d="M46.934,73.664l1.051-1.053C47.988,72.408,48,72.206,48,72c0-0.316-0.012-0.629-0.023-0.941l-0.978,0.977
		C46.998,72.583,46.973,73.125,46.934,73.664z"/>
	<path fill="#989898" d="M41.312,56.882c0.244,0.279,0.48,0.563,0.711,0.854l0.72-0.719c-0.231-0.289-0.47-0.574-0.714-0.852
		L41.312,56.882z"/>
	<path fill="#989898" d="M17.584,94.082c-0.399-0.115-0.794-0.241-1.185-0.379l-0.787,0.787c0.383,0.143,0.771,0.277,1.163,0.4
		L17.584,94.082z"/>
	<path fill="#989898" d="M15.374,93.314c-0.368-0.148-0.73-0.308-1.088-0.475l-0.758,0.758c0.353,0.172,0.711,0.336,1.073,0.489
		L15.374,93.314z"/>
	<path fill="#989898" d="M6.688,87.117c-0.244-0.279-0.48-0.562-0.71-0.854l-0.719,0.719c0.231,0.289,0.469,0.572,0.713,0.851
		L6.688,87.117z"/>
	<path fill="#989898" d="M9.737,90.021c-0.291-0.229-0.575-0.467-0.854-0.711l-0.716,0.717c0.278,0.244,0.562,0.482,0.851,0.715
		L9.737,90.021z"/>
	<path fill="#989898" d="M11.466,91.27c-0.314-0.205-0.623-0.416-0.926-0.637l-0.724,0.725c0.301,0.222,0.608,0.437,0.919,0.644
		L11.466,91.27z"/>
	<path fill="#989898" d="M13.341,92.371c-0.339-0.178-0.674-0.364-1.003-0.559L11.6,92.551c0.326,0.197,0.657,0.387,0.993,0.569
		L13.341,92.371z"/>
	<path fill="#989898" d="M20,94.645c-0.437-0.076-0.869-0.166-1.296-0.267l-0.83,0.83c0.417,0.108,0.838,0.211,1.264,0.299
		L20,94.645z"/>
	<path fill="#989898" d="M33.705,92.846c-0.836,0.391-1.698,0.731-2.584,1.021l-1.454,1.455c0.753-0.184,1.491-0.4,2.214-0.652
		L33.705,92.846z"/>
	<path fill="#989898" d="M43.391,86.137c0.883-1.209,1.656-2.502,2.305-3.867l-2.743,2.744c-1.601,2.322-3.615,4.338-5.938,5.938
		l-2.742,2.741c1.365-0.646,2.658-1.422,3.867-2.305L43.391,86.137z"/>
	<path fill="#989898" d="M29.166,94.408c-0.632,0.146-1.271,0.267-1.922,0.357l-1.137,1.137c0.603-0.053,1.197-0.125,1.785-0.223
		L29.166,94.408z"/>
	<path fill="#989898" d="M22.662,94.958c-0.481-0.026-0.958-0.073-1.432-0.131l-0.895,0.896c0.46,0.069,0.926,0.123,1.395,0.168
		L22.662,94.958z"/>
	<path fill="#989898" d="M14.293,51.156c0.836-0.391,1.699-0.732,2.585-1.022l1.455-1.454c-0.753,0.182-1.492,0.399-2.216,0.651
		L14.293,51.156z"/>
	<path fill="#989898" d="M1.233,68.757c0.092-0.649,0.214-1.291,0.359-1.922l-1.273,1.272c-0.096,0.588-0.169,1.185-0.221,1.785
		L1.233,68.757z"/>
	<path fill="#989898" d="M1.173,74.771c-0.057-0.475-0.103-0.951-0.131-1.433L0.11,74.271c0.044,0.469,0.098,0.934,0.168,1.395
		L1.173,74.771z"/>
	<path fill="#989898" d="M2.134,64.878c0.29-0.886,0.631-1.75,1.022-2.585l-1.825,1.824c-0.251,0.724-0.47,1.462-0.652,2.216
		L2.134,64.878z"/>
	<path fill="#989898" d="M5.367,85.46c-0.219-0.303-0.432-0.61-0.637-0.926L4,85.266c0.207,0.312,0.422,0.617,0.643,0.918
		L5.367,85.46z"/>
	<path fill="#989898" d="M18.834,49.592c0.632-0.146,1.272-0.267,1.922-0.359l1.136-1.135c-0.602,0.053-1.197,0.125-1.785,0.221
		L18.834,49.592z"/>
	<path fill="#989898" d="M25.339,49.042c0.481,0.028,0.958,0.074,1.433,0.131l0.895-0.896c-0.46-0.069-0.926-0.125-1.395-0.168
		L25.339,49.042z"/>
	<path fill="#989898" d="M3.16,81.715c-0.167-0.357-0.326-0.721-0.475-1.089l-0.772,0.772c0.154,0.362,0.318,0.721,0.489,1.074
		L3.16,81.715z"/>
	<path fill="#989898" d="M1.623,77.297c-0.101-0.428-0.19-0.859-0.267-1.295l-0.862,0.861c0.088,0.426,0.189,0.847,0.299,1.264
		L1.623,77.297z"/>
	<path fill="#989898" d="M4.188,83.663c-0.194-0.33-0.38-0.664-0.559-1.004L2.88,83.408c0.182,0.336,0.372,0.667,0.569,0.992
		L4.188,83.663z"/>
	<path fill="#989898" d="M2.296,79.6c-0.137-0.39-0.263-0.783-0.379-1.184l-0.809,0.809c0.124,0.394,0.258,0.779,0.401,1.162
		L2.296,79.6z"/>
</g>
<g>
	<path fill="#989898" d="M26.312,58.295c0-0.374-0.1-0.723-0.261-1.036l-3.096,3.097c0.316,0.166,0.673,0.268,1.061,0.268
		c0.089,0,0.174-0.018,0.261-0.025l2.005-2.006C26.295,58.493,26.312,58.396,26.312,58.295z"/>
	<path fill="#989898" d="M23.384,58.512c-0.028-0.072-0.047-0.148-0.047-0.228c0-0.349,0.295-0.668,0.688-0.668
		c0.074,0,0.143,0.021,0.209,0.045l1.176-1.177c-0.314-0.243-0.691-0.403-1.105-0.457l-2.555,2.555
		c0.05,0.42,0.204,0.802,0.442,1.121L23.384,58.512z"/>
</g>
<g>
	<path fill="#989898" d="M26.506,59.88c-0.283,0.451-0.674,0.793-1.119,1.022l-4.3,4.3c0.238,0.284,0.504,0.543,0.813,0.75
		l5.278-5.278C26.986,60.387,26.771,60.115,26.506,59.88z"/>
	<path fill="#989898" d="M27.83,62.756c0-0.389-0.08-0.762-0.196-1.125l-4.771,4.771c0.367,0.119,0.75,0.199,1.154,0.199
		c0.08,0,0.154-0.019,0.232-0.023l3.553-3.553C27.809,62.936,27.83,62.848,27.83,62.756z"/>
	<path fill="#989898" d="M23.679,61.195c-0.429-0.045-0.833-0.166-1.188-0.375l-2.282,2.283c0.041,0.438,0.146,0.854,0.324,1.239
		L23.679,61.195z"/>
	<path fill="#989898" d="M20.427,61.469l1.318-1.318c-0.071-0.09-0.155-0.168-0.215-0.271C21.013,60.32,20.651,60.871,20.427,61.469
		z"/>
</g>
<path fill="#989898" d="M24.016,83.992c0.322,0,0.613-0.291,0.613-0.646c0-0.203-0.146-0.4-0.342-0.506l-0.393,0.395l-0.429,0.429
	C23.577,83.855,23.778,83.992,24.016,83.992z"/>
<g>
	<polygon fill="#989898" points="29.409,80.693 29.409,82.257 32.607,79.059 32.607,77.496 	"/>
	<polygon fill="#989898" points="29.409,77.718 29.409,79.279 32.607,76.082 32.607,74.52 	"/>
	<path fill="#989898" d="M28.566,78.561l-3.649,3.649c0.323,0.247,0.521,0.61,0.562,1.001l3.088-3.088V78.561L28.566,78.561z"/>
	<path fill="#989898" d="M32.607,80.475l-3.198,3.197v1.062c0,0.156,0.021,0.306,0.053,0.447l3.146-3.146V80.475L32.607,80.475z"/>
	<path fill="#989898" d="M19.453,80.307l2.96-2.961c-0.252-0.328-0.402-0.73-0.405-1.158l-2.555,2.555V80.307z"/>
	<path fill="#989898" d="M19.8,71.027c-0.095-0.354-0.15-0.721-0.15-1.096c0-0.113,0.015-0.228,0.024-0.341l-4.292,4.292v1.562
		L19.8,71.027z"/>
	<path fill="#989898" d="M18.582,82.592l-3.004,3.004c0.171,0.348,0.45,0.612,0.815,0.748l2.189-2.189V82.592z"/>
	<path fill="#989898" d="M29.409,76.305l3.198-3.199v-0.557c0-0.312-0.034-0.617-0.092-0.915l-3.106,3.107V76.305z"/>
	<path fill="#989898" d="M22.833,84.294l-3.379,3.38V88h1.236l3.149-3.148C23.431,84.803,23.076,84.598,22.833,84.294z"/>
	<path fill="#989898" d="M20.174,67.677c-0.756,0.015-1.462,0.212-2.098,0.536l-2.15,2.148c-0.323,0.637-0.521,1.343-0.535,2.099
		L20.174,67.677z"/>
	<path fill="#989898" d="M18.582,75.223v-0.766h0.766l1.528-1.527c-0.259-0.271-0.483-0.57-0.666-0.897l-4.828,4.827v1.563
		L18.582,75.223z"/>
	<path fill="#989898" d="M23.56,79.176v-1.097c-0.123-0.026-0.24-0.065-0.352-0.114l-3.755,3.756v1.563L23.56,79.176z"/>
	<path fill="#989898" d="M25.986,75.188v0.983c0,0.256-0.057,0.501-0.15,0.729l6.338-6.338c-0.156-0.351-0.359-0.67-0.591-0.973
		L25.986,75.188z"/>
	<polygon fill="#989898" points="28.566,83.1 28.566,81.537 22.104,88 23.666,88 	"/>
	<path fill="#989898" d="M22.521,83.191c0.07-0.553,0.478-1.059,1.039-1.235V80.59l-4.107,4.107v1.562L22.521,83.191z"/>
	<path fill="#989898" d="M24.434,78.079v0.223l0.323-0.321C24.652,78.021,24.546,78.055,24.434,78.079z"/>
	<path fill="#989898" d="M32.607,84.734V83.45l-2.627,2.627c0.269,0.229,0.619,0.37,1.045,0.37c0.058,0,0.108-0.012,0.164-0.016
		l1.394-1.396C32.598,84.938,32.607,84.839,32.607,84.734z"/>
	<polygon fill="#989898" points="28.566,87.491 28.059,88 28.566,88 	"/>
	<polygon fill="#989898" points="18.582,81.178 18.582,79.611 15.382,82.812 15.382,84.378 	"/>
	<polygon fill="#989898" points="28.566,86.077 28.566,84.516 25.081,88 26.645,88 	"/>
	<path fill="#989898" d="M28.37,69.824c0.001,0.035,0.008,0.072,0.008,0.107c0,0.676-0.172,1.329-0.469,1.918l2.985-2.985
		c-0.283-0.246-0.595-0.458-0.931-0.634L28.37,69.824z"/>
	<polygon fill="#989898" points="28.566,77.146 28.566,75.584 24.434,79.716 24.434,81.277 	"/>
	<path fill="#989898" d="M19.453,77.327l2.554-2.554v-0.996c-0.124-0.062-0.238-0.139-0.354-0.211l-2.199,2.199L19.453,77.327
		L19.453,77.327z"/>
	<path fill="#989898" d="M28.167,68.614l0.78-0.78c-0.381-0.098-0.771-0.166-1.182-0.166C27.936,67.963,28.064,68.284,28.167,68.614
		z"/>
	<polygon fill="#989898" points="18.582,78.198 18.582,76.637 15.382,79.837 15.382,81.398 	"/>
</g>
<g>
	<path fill="#989898" d="M25.146,76.17v-0.143l-1.225,1.224c0.031,0.002,0.058,0.017,0.09,0.017
		C24.63,77.268,25.146,76.783,25.146,76.17z"/>
	<path fill="#989898" d="M21.597,67.668l-0.707,0.707c-0.246,0.489-0.398,1.021-0.398,1.557c0,0.129,0.017,0.252,0.029,0.375
		l2.639-2.639H21.597z"/>
	<path fill="#989898" d="M25.146,73.261c1.115-0.493,1.951-1.327,2.24-2.454l-4.539,4.539v0.824c0,0.21,0.077,0.393,0.183,0.559
		l2.115-2.114V73.261z"/>
	<path fill="#989898" d="M26.137,67.668h-1.562l-3.746,3.747c0.164,0.34,0.379,0.647,0.646,0.917L26.137,67.668z"/>
	<path fill="#989898" d="M22.849,73.932l4.603-4.603c-0.071-0.397-0.214-0.784-0.421-1.142l-4.764,4.765
		c0.185,0.112,0.377,0.219,0.582,0.31V73.932z"/>
</g>
</svg>
