<?xml version="1.0" encoding="utf-8"?>
<!-- Generator: Adobe Illustrator 16.0.0, SVG Export Plug-In . SVG Version: 6.00 Build 0)  -->
<!DOCTYPE svg PUBLIC "-//W3C//DTD SVG 1.1//EN" "http://www.w3.org/Graphics/SVG/1.1/DTD/svg11.dtd">
<svg version="1.1" id="Layer_1" xmlns="http://www.w3.org/2000/svg" xmlns:xlink="http://www.w3.org/1999/xlink" x="0px" y="0px"
	 width="24px" height="24px" viewBox="0 0 24 24" enable-background="new 0 0 24 24" xml:space="preserve">
<g>
	<path fill="#79BE43" d="M12,0C5.384,0,0,5.384,0,12s5.384,12,12,12s12-5.384,12-12C24,5.383,18.616,0,12,0z M17.9,8.729
		l-6.436,7.678c-0.164,0.195-0.404,0.311-0.658,0.316c-0.007,0-0.014,0-0.02,0c-0.248,0-0.485-0.105-0.653-0.289l-4.012-4.396
		c-0.329-0.361-0.304-0.92,0.058-1.25c0.36-0.33,0.92-0.305,1.25,0.059l3.33,3.649l5.784-6.901c0.313-0.373,0.872-0.425,1.245-0.109
		C18.165,7.798,18.214,8.355,17.9,8.729z"/>
</g>
</svg>
