<?xml version="1.0" encoding="utf-8"?>
<!-- Generator: Adobe Illustrator 16.0.0, SVG Export Plug-In . SVG Version: 6.00 Build 0)  -->
<!DOCTYPE svg PUBLIC "-//W3C//DTD SVG 1.1//EN" "http://www.w3.org/Graphics/SVG/1.1/DTD/svg11.dtd">
<svg version="1.1" id="Layer_1" xmlns="http://www.w3.org/2000/svg" xmlns:xlink="http://www.w3.org/1999/xlink" x="0px" y="0px"
	 width="60px" height="60px" viewBox="0 0 60 60" enable-background="new 0 0 60 60" xml:space="preserve">
<g>
	<path fill="#79BE10" d="M30,0C13.459,0,0,13.459,0,30C0,46.542,13.459,59.999,30,59.999c16.542,0,29.999-13.457,29.999-29.999
		S46.542,0,30,0z M30,55.577c-14.105,0-25.58-11.474-25.58-25.577c0-14.104,11.475-25.58,25.58-25.58
		c14.103,0,25.577,11.475,25.577,25.58C55.577,44.103,44.103,55.577,30,55.577z"/>
	<path fill="#79BE10" d="M41.363,18.984l-14.46,17.254l-8.328-9.126c-0.822-0.904-2.222-0.969-3.125-0.143
		c-0.902,0.823-0.965,2.22-0.142,3.123l10.03,10.993c0.419,0.459,1.013,0.721,1.633,0.721c0.015,0,0.032,0,0.047,0
		c0.637-0.013,1.237-0.302,1.647-0.79l16.086-19.191c0.784-0.937,0.661-2.329-0.274-3.115
		C43.542,17.923,42.149,18.053,41.363,18.984z"/>
</g>
</svg>
