<?xml version="1.0" encoding="utf-8"?>
<!-- Generator: Adobe Illustrator 16.0.0, SVG Export Plug-In . SVG Version: 6.00 Build 0)  -->
<!DOCTYPE svg PUBLIC "-//W3C//DTD SVG 1.1//EN" "http://www.w3.org/Graphics/SVG/1.1/DTD/svg11.dtd">
<svg version="1.1" id="Layer_1" xmlns="http://www.w3.org/2000/svg" xmlns:xlink="http://www.w3.org/1999/xlink" x="0px" y="0px"
	 width="16px" height="16px" viewBox="0 0 16 16" enable-background="new 0 0 16 16" xml:space="preserve">
<path fill="#FFFFFF" d="M8,0C3.581,0,0,3.581,0,8c0,4.417,3.581,8,8,8c4.417,0,7.999-3.584,7.999-8C15.998,3.581,12.416,0,8,0z
	 M6.704,12.735c-0.521,0-0.882-0.246-0.882-0.794c0-0.695,0.492-1.881,0.593-2.126l1.012-2.547c0.101-0.26-0.029-0.391-0.145-0.391
	c-0.535,0-1.23,1.259-1.489,1.259c-0.102,0-0.188-0.102-0.188-0.188c0-0.262,0.635-0.869,0.824-1.056
	C7.008,6.344,7.76,5.923,8.6,5.923c0.622,0,1.287,0.376,0.766,1.781l-1.042,2.821c-0.086,0.217-0.245,0.578-0.245,0.811
	c0,0.1,0.056,0.201,0.172,0.201c0.434,0,1.229-1.23,1.434-1.23c0.071,0,0.172,0.088,0.172,0.219
	C9.857,10.942,8.166,12.735,6.704,12.735z M9.193,5.404c-0.593,0-0.985-0.392-0.985-0.986c0-0.635,0.549-1.156,1.187-1.156
	c0.578,0,0.997,0.39,0.997,0.982C10.393,4.912,9.844,5.404,9.193,5.404z"/>
</svg>
