<?xml version="1.0" encoding="utf-8"?>
<!-- Generator: Adobe Illustrator 16.0.0, SVG Export Plug-In . SVG Version: 6.00 Build 0)  -->
<!DOCTYPE svg PUBLIC "-//W3C//DTD SVG 1.1//EN" "http://www.w3.org/Graphics/SVG/1.1/DTD/svg11.dtd">
<svg version="1.1" id="Layer_1" xmlns="http://www.w3.org/2000/svg" xmlns:xlink="http://www.w3.org/1999/xlink" x="0px" y="0px"
	 width="11px" height="16px" viewBox="0 0 11 16" enable-background="new 0 0 11 16" xml:space="preserve">
<path opacity="0.8" fill="#FFFFFF" enable-background="new    " d="M5.499,0C2.462,0,0,2.426,0,5.419
	c0,0.064,0.002,0.129,0.005,0.195c0.021,0.57,0.13,1.116,0.315,1.628C1.493,11.043,5.499,16,5.499,16s4.007-4.957,5.18-8.757
	c0.187-0.512,0.294-1.059,0.315-1.628C10.998,5.549,11,5.484,11,5.42C11,2.426,8.536,0,5.499,0z M5.499,7.673
	c-1.264,0-2.287-1.009-2.287-2.254s1.023-2.254,2.287-2.254s2.288,1.009,2.288,2.254S6.763,7.673,5.499,7.673z"/>
</svg>
