<?xml version="1.0" encoding="utf-8"?>
<!-- Generator: Adobe Illustrator 16.0.0, SVG Export Plug-In . SVG Version: 6.00 Build 0)  -->
<!DOCTYPE svg PUBLIC "-//W3C//DTD SVG 1.1//EN" "http://www.w3.org/Graphics/SVG/1.1/DTD/svg11.dtd">
<svg version="1.1" id="Layer_1" xmlns="http://www.w3.org/2000/svg" xmlns:xlink="http://www.w3.org/1999/xlink" x="0px" y="0px"
	 width="48px" height="96px" viewBox="0 0 48 96" enable-background="new 0 0 48 96" xml:space="preserve">
<g>
	<path fill="#989898" d="M34.131,58.111L23.356,68.886c0.295,0.259,0.563,0.511,0.802,0.761l10.938-10.938
		C34.783,58.48,34.461,58.282,34.131,58.111z"/>
	<path fill="#989898" d="M30.507,57.344c-0.948,0.09-1.838,0.422-2.575,1.014l-8.184,8.183c0.357,0.153,0.709,0.321,1.055,0.507
		L30.507,57.344z"/>
	<path fill="#989898" d="M36.383,59.846c-0.162-0.179-0.332-0.347-0.504-0.506L24.828,70.391c0.281,0.34,0.521,0.651,0.68,0.865
		c0.029-0.025,0.062-0.049,0.094-0.074l11.025-11.027C36.542,60.052,36.475,59.943,36.383,59.846z"/>
	<path fill="#989898" d="M38.466,64.271c-0.044-0.43-0.141-0.86-0.271-1.293l-5.961,5.961c0.473,0.028,0.936,0.084,1.383,0.18
		L38.466,64.271z"/>
	<path fill="#989898" d="M33.146,57.682c-0.418-0.145-0.84-0.244-1.26-0.303L21.688,67.577c0.308,0.202,0.608,0.423,0.9,0.662
		L33.146,57.682z"/>
	<path fill="#989898" d="M37.195,68.406c0.695-0.733,1.093-1.672,1.234-2.688l-3.699,3.7c0.322,0.108,0.639,0.233,0.942,0.372
		L37.195,68.406z"/>
	<path fill="#989898" d="M37.809,61.951c-0.16-0.342-0.347-0.676-0.562-1.002l-8.415,8.416c0.634-0.204,1.293-0.35,1.979-0.414
		L37.809,61.951z"/>
</g>
<g>
	<path fill="#989898" d="M23.269,70.536c-0.236-0.25-0.498-0.511-0.787-0.775L9.236,83.006c0.2,0.305,0.428,0.6,0.677,0.887
		L23.269,70.536z"/>
	<path fill="#989898" d="M21.707,69.12c-0.302-0.233-0.607-0.449-0.917-0.646L8.289,80.977c0.112,0.379,0.257,0.756,0.437,1.127
		L21.707,69.12z"/>
	<path fill="#989898" d="M18.805,67.482L8.071,78.217c-0.078,0.512-0.085,1.045-0.023,1.586L19.891,67.96
		C19.533,67.777,19.17,67.619,18.805,67.482z"/>
	<path fill="#989898" d="M22.289,78.885l-7.728,7.729c0.519,0.08,1.031,0.089,1.528,0.035l6.372-6.373
		C22.37,79.822,22.313,79.357,22.289,78.885z"/>
	<path fill="#989898" d="M24.481,72.3c0.041-0.047,0.076-0.098,0.117-0.144c-0.122-0.176-0.351-0.489-0.666-0.87l-13.33,13.33
		c0.276,0.259,0.565,0.489,0.862,0.7L24.481,72.3z"/>
	<path fill="#989898" d="M22.842,81.684c-0.033-0.094-0.058-0.19-0.088-0.287l-4.428,4.429c0.159-0.112,0.313-0.235,0.458-0.371
		L22.842,81.684z"/>
	<path fill="#989898" d="M22.316,77.443c0.067-0.685,0.21-1.344,0.412-1.978L12.336,85.859c0.357,0.188,0.722,0.35,1.089,0.475
		L22.316,77.443z"/>
</g>
<g>
	<path fill="#989898" d="M33.087,78.579l-2.59,1.026l-4.649,4.648c0.264,0.264,0.539,0.51,0.832,0.732L33.087,78.579z"/>
	<path fill="#989898" d="M38.02,76.625l-2.59,1.025l-7.896,7.897c0.337,0.196,0.686,0.37,1.047,0.517L38.02,76.625z"/>
	<path fill="#989898" d="M28.154,80.534l-2.588,1.024l-1.017,1.017c0.191,0.327,0.4,0.64,0.63,0.934L28.154,80.534z"/>
	<path fill="#989898" d="M39.551,81.046c0.219-0.639,0.365-1.304,0.422-1.983l-7.59,7.59c0.66-0.055,1.322-0.194,1.977-0.414
		L39.551,81.046z"/>
	<path fill="#989898" d="M39.962,77.658c-0.039-0.443-0.119-0.887-0.233-1.329L29.645,86.413c0.437,0.11,0.879,0.192,1.33,0.231
		L39.962,77.658z"/>
</g>
<g>
	<path fill="#989898" d="M29.32,70.438c-0.219,0.066-0.438,0.139-0.654,0.225c-2.468,0.968-4.211,2.992-4.919,5.352L29.32,70.438z"
		/>
	<path fill="#989898" d="M33.797,70.354L23.675,80.475c0.026,0.1,0.045,0.197,0.075,0.295l1.975-0.781l9.235-9.235
		C34.583,70.591,34.195,70.457,33.797,70.354z"/>
	<path fill="#989898" d="M31.066,70.107l-7.647,7.646c-0.039,0.507-0.031,1.021,0.027,1.535l9.16-9.159
		C32.098,70.075,31.583,70.066,31.066,70.107z"/>
	<path fill="#989898" d="M38.869,74.212l-0.945,0.944l1.205-0.477C39.049,74.52,38.958,74.366,38.869,74.212z"/>
	<path fill="#989898" d="M38.311,73.355c-0.225-0.297-0.474-0.569-0.732-0.83l-4.583,4.584l2.588-1.025L38.311,73.355z"/>
	<path fill="#989898" d="M36.83,71.857c-0.296-0.231-0.605-0.443-0.93-0.633l-7.834,7.836l2.586-1.024L36.83,71.857z"/>
</g>
<g>
	<path fill="#989898" d="M45.704,64.398c0.137,0.391,0.263,0.785,0.379,1.186l0.81-0.809c-0.125-0.393-0.259-0.779-0.401-1.164
		L45.704,64.398z"/>
	<path fill="#989898" d="M42.634,58.54c0.22,0.303,0.433,0.612,0.636,0.926L44,58.736c-0.207-0.312-0.422-0.618-0.643-0.92
		L42.634,58.54z"/>
	<path fill="#989898" d="M41.312,56.883c0.244,0.278,0.48,0.562,0.711,0.854l0.72-0.719c-0.231-0.289-0.47-0.572-0.714-0.851
		L41.312,56.883z"/>
	<path fill="#989898" d="M44.841,62.286c0.168,0.358,0.325,0.721,0.476,1.088l0.771-0.772c-0.154-0.362-0.316-0.72-0.488-1.072
		L44.841,62.286z"/>
	<path fill="#989898" d="M43.812,60.337c0.194,0.33,0.381,0.664,0.56,1.003l0.749-0.748c-0.184-0.336-0.372-0.667-0.569-0.994
		L43.812,60.337z"/>
	<path fill="#989898" d="M28.001,49.355c0.437,0.076,0.868,0.166,1.296,0.267l0.83-0.831c-0.417-0.109-0.838-0.211-1.264-0.298
		L28.001,49.355z"/>
	<path fill="#989898" d="M30.416,49.917c0.398,0.116,0.794,0.242,1.184,0.378l0.787-0.787c-0.383-0.143-0.77-0.277-1.162-0.4
		L30.416,49.917z"/>
	<path fill="#989898" d="M46.378,66.703c0.101,0.428,0.188,0.859,0.267,1.296l0.862-0.862c-0.088-0.426-0.188-0.847-0.299-1.265
		L46.378,66.703z"/>
	<path fill="#989898" d="M36.535,52.73c0.312,0.205,0.622,0.416,0.926,0.637l0.725-0.725c-0.303-0.221-0.609-0.435-0.92-0.643
		L36.535,52.73z"/>
	<path fill="#989898" d="M34.66,51.629c0.339,0.178,0.674,0.364,1.003,0.559L36.4,51.45c-0.325-0.197-0.656-0.388-0.992-0.569
		L34.66,51.629z"/>
	<path fill="#989898" d="M38.266,53.979c0.289,0.229,0.573,0.465,0.853,0.709l0.716-0.715c-0.277-0.244-0.561-0.482-0.85-0.714
		L38.266,53.979z"/>
	<path fill="#989898" d="M32.626,50.686c0.368,0.148,0.731,0.307,1.089,0.475l0.758-0.758c-0.353-0.172-0.711-0.336-1.072-0.489
		L32.626,50.686z"/>
	<path fill="#989898" d="M5.052,58.982c1.599-2.319,3.611-4.332,5.93-5.931l2.746-2.745c-1.366,0.647-2.659,1.422-3.868,2.305
		l-5.248,5.248c-0.883,1.209-1.657,2.502-2.305,3.869L5.052,58.982z"/>
	<path fill="#989898" d="M1.066,70.337l-1.051,1.052C0.01,71.592,0,71.795,0,72c0,0.316,0.012,0.629,0.024,0.941l0.977-0.977
		C1.002,71.417,1.028,70.875,1.066,70.337z"/>
	<path fill="#989898" d="M23.965,49.001l0.977-0.977C24.629,48.012,24.316,48,24,48c-0.205,0-0.408,0.01-0.612,0.016l-1.051,1.05
		C22.875,49.027,23.417,49.002,23.965,49.001z"/>
	<path fill="#989898" d="M24.036,94.999l-0.977,0.978C23.371,95.988,23.684,96,24,96c0.206,0,0.408-0.011,0.611-0.016l1.053-1.051
		C25.125,94.973,24.584,94.998,24.036,94.999z"/>
	<path fill="#989898" d="M7.362,87.855L6.648,88.57c0.254,0.267,0.515,0.527,0.781,0.781l0.714-0.716
		C7.877,88.383,7.617,88.123,7.362,87.855z"/>
	<path fill="#989898" d="M40.637,56.145l0.715-0.715c-0.254-0.267-0.515-0.527-0.781-0.781l-0.715,0.715
		C40.122,55.617,40.383,55.877,40.637,56.145z"/>
	<path fill="#989898" d="M46.67,79.881c0.251-0.724,0.469-1.462,0.65-2.214l-1.454,1.454c-0.289,0.886-0.63,1.748-1.021,2.583
		L46.67,79.881z"/>
	<path fill="#989898" d="M46.768,75.244c-0.093,0.65-0.213,1.29-0.358,1.922l1.272-1.273c0.096-0.588,0.168-1.183,0.221-1.783
		L46.768,75.244z"/>
	<path fill="#989898" d="M46.934,73.664l1.051-1.053C47.988,72.408,48,72.206,48,72c0-0.316-0.012-0.629-0.023-0.941l-0.978,0.978
		C46.998,72.584,46.973,73.125,46.934,73.664z"/>
	<path fill="#989898" d="M46.827,69.23c0.058,0.474,0.104,0.949,0.131,1.432l0.933-0.932c-0.045-0.47-0.099-0.935-0.168-1.396
		L46.827,69.23z"/>
	<path fill="#989898" d="M15.374,93.314c-0.368-0.148-0.73-0.307-1.088-0.475l-0.758,0.758c0.354,0.172,0.711,0.336,1.073,0.489
		L15.374,93.314z"/>
	<path fill="#989898" d="M17.584,94.083c-0.399-0.116-0.794-0.242-1.185-0.379l-0.787,0.786c0.383,0.144,0.771,0.277,1.163,0.4
		L17.584,94.083z"/>
	<path fill="#989898" d="M20,94.645c-0.437-0.076-0.868-0.166-1.296-0.267l-0.831,0.83c0.417,0.108,0.838,0.211,1.265,0.299
		L20,94.645z"/>
	<path fill="#989898" d="M6.688,87.117c-0.244-0.278-0.48-0.562-0.71-0.854l-0.719,0.719c0.231,0.289,0.469,0.572,0.713,0.851
		L6.688,87.117z"/>
	<path fill="#989898" d="M11.466,91.27c-0.314-0.203-0.623-0.416-0.926-0.637l-0.724,0.725c0.301,0.222,0.607,0.437,0.919,0.644
		L11.466,91.27z"/>
	<path fill="#989898" d="M25.339,49.042c0.481,0.028,0.958,0.074,1.433,0.131l0.895-0.895c-0.461-0.07-0.926-0.125-1.395-0.168
		L25.339,49.042z"/>
	<path fill="#989898" d="M13.341,92.371c-0.339-0.178-0.674-0.364-1.003-0.559L11.6,92.55c0.326,0.197,0.657,0.388,0.993,0.569
		L13.341,92.371z"/>
	<path fill="#989898" d="M43.395,86.133c0.881-1.207,1.653-2.499,2.301-3.863l-2.741,2.742c-1.601,2.324-3.617,4.342-5.94,5.941
		l-2.742,2.742c1.363-0.647,2.655-1.42,3.862-2.303L43.395,86.133z"/>
	<path fill="#989898" d="M22.663,94.958c-0.482-0.026-0.958-0.073-1.432-0.131l-0.895,0.896c0.46,0.069,0.926,0.123,1.394,0.168
		L22.663,94.958z"/>
	<path fill="#989898" d="M33.704,92.846c-0.835,0.391-1.697,0.731-2.583,1.021l-1.454,1.455c0.753-0.184,1.491-0.4,2.214-0.651
		L33.704,92.846z"/>
	<path fill="#989898" d="M29.166,94.408c-0.632,0.146-1.271,0.267-1.922,0.357l-1.135,1.137c0.601-0.053,1.195-0.125,1.783-0.223
		L29.166,94.408z"/>
	<path fill="#989898" d="M9.736,90.023c-0.291-0.23-0.575-0.469-0.854-0.711l-0.716,0.715c0.278,0.244,0.562,0.482,0.851,0.715
		L9.736,90.023z"/>
	<path fill="#989898" d="M1.233,68.757c0.092-0.649,0.214-1.291,0.359-1.923l-1.273,1.273c-0.096,0.588-0.169,1.183-0.221,1.785
		L1.233,68.757z"/>
	<path fill="#989898" d="M1.173,74.771c-0.057-0.475-0.103-0.951-0.131-1.433L0.11,74.271c0.044,0.468,0.098,0.934,0.168,1.394
		L1.173,74.771z"/>
	<path fill="#989898" d="M2.134,64.878c0.29-0.886,0.631-1.749,1.021-2.585l-1.824,1.824c-0.251,0.724-0.47,1.462-0.652,2.216
		L2.134,64.878z"/>
	<path fill="#989898" d="M18.834,49.592c0.632-0.146,1.272-0.267,1.923-0.359l1.135-1.134c-0.602,0.052-1.197,0.125-1.785,0.221
		L18.834,49.592z"/>
	<path fill="#989898" d="M14.293,51.156c0.835-0.391,1.698-0.732,2.585-1.021l1.455-1.455c-0.753,0.183-1.492,0.401-2.216,0.652
		L14.293,51.156z"/>
	<path fill="#989898" d="M1.623,77.297c-0.101-0.428-0.19-0.859-0.267-1.296l-0.862,0.862c0.088,0.426,0.189,0.847,0.298,1.264
		L1.623,77.297z"/>
	<path fill="#989898" d="M3.159,81.715c-0.167-0.357-0.325-0.721-0.475-1.088l-0.772,0.771c0.154,0.362,0.318,0.722,0.489,1.074
		L3.159,81.715z"/>
	<path fill="#989898" d="M4.188,83.663c-0.195-0.329-0.381-0.664-0.559-1.003L2.88,83.408c0.182,0.336,0.372,0.667,0.569,0.992
		L4.188,83.663z"/>
	<path fill="#989898" d="M2.296,79.6c-0.137-0.39-0.263-0.783-0.378-1.184l-0.809,0.809c0.124,0.393,0.258,0.779,0.4,1.162
		L2.296,79.6z"/>
	<path fill="#989898" d="M5.367,85.461c-0.22-0.304-0.432-0.611-0.637-0.926L4,85.266c0.208,0.312,0.422,0.617,0.644,0.92
		L5.367,85.461z"/>
</g>
<g>
	<path fill="#454545" d="M25.508,23.256c1.641-1.465,3.812-2.348,6.191-2.348c1.438,0,2.777,0.34,3.975,0.883l1.521-1.385
		c2.004-2.112,1.688-5.873-0.812-8.561c-2.488-2.719-6.229-3.318-8.498-1.454l-8.6,7.952c1.288,0.495,2.521,1.179,3.616,2.145
		C24.243,21.549,25.09,22.688,25.508,23.256z"/>
	<path fill="#454545" d="M24.598,24.156c-0.292-0.423-1.167-1.605-2.5-2.737c-1.207-1.013-2.486-1.714-3.799-2.123L9.5,27.43
		c-2.213,2.051-1.964,5.98,0.658,8.743c2.546,2.761,6.422,3.338,8.625,1.28l4.059-3.77c-0.358-1.021-0.576-2.131-0.576-3.279
		C22.266,28.004,23.131,25.798,24.598,24.156z"/>
	<path fill="#454545" d="M39.641,27.982l-15.368,6.09c1.874,3.812,6.411,5.623,10.485,4.031
		C38.795,36.482,40.889,32.078,39.641,27.982z"/>
	<path fill="#454545" d="M28.666,22.662C24.616,24.25,22.5,28.68,23.75,32.77l15.379-6.09
		C37.243,22.865,32.707,21.061,28.666,22.662z"/>
</g>
<path fill="#454545" d="M24,1c12.684,0,23,10.318,23,23c0,12.684-10.316,23-23,23C11.318,47,1,36.684,1,24C1,11.318,11.318,1,24,1
	 M24,0C10.745,0,0,10.746,0,24c0,13.255,10.745,24,24,24c13.256,0,24-10.744,24-24C48,10.746,37.256,0,24,0L24,0z"/>
</svg>
