<?xml version="1.0" encoding="utf-8"?>
<!-- Generator: Adobe Illustrator 16.0.0, SVG Export Plug-In . SVG Version: 6.00 Build 0)  -->
<!DOCTYPE svg PUBLIC "-//W3C//DTD SVG 1.1//EN" "http://www.w3.org/Graphics/SVG/1.1/DTD/svg11.dtd">
<svg version="1.1" id="Layer_1" xmlns="http://www.w3.org/2000/svg" xmlns:xlink="http://www.w3.org/1999/xlink" x="0px" y="0px"
	 width="48px" height="96px" viewBox="0 0 48 96" enable-background="new 0 0 48 96" xml:space="preserve">
<path fill="#454545" d="M24,1c12.682,0,23,10.318,23,23c0,12.682-10.318,23-23,23C11.318,47,1,36.682,1,24C1,11.318,11.318,1,24,1
	 M24,0C10.745,0,0,10.745,0,24c0,13.254,10.745,24,24,24c13.254,0,24-10.746,24-24C48,10.745,37.254,0,24,0L24,0z"/>
<path fill="#454545" d="M23.999,20.9c-1.657,0-3.005,1.349-3.005,3.006c0,1.658,1.348,3.007,3.005,3.007
	c1.659,0,3.008-1.349,3.008-3.007C27.007,22.249,25.658,20.9,23.999,20.9z M23.999,15.332C16.027,15.332,8,24,8,24
	s8.027,8.668,15.999,8.668C31.973,32.668,40,24,40,24S31.973,15.332,23.999,15.332z M23.999,30.042
	c-3.388,0-6.134-2.744-6.134-6.136c0-3.389,2.746-6.133,6.134-6.133c3.39,0,6.136,2.744,6.136,6.133
	C30.135,27.298,27.389,30.042,23.999,30.042z"/>
<g>
	<path fill="#989898" d="M43.812,60.338c0.194,0.329,0.381,0.664,0.56,1.003l0.749-0.749c-0.184-0.336-0.372-0.667-0.569-0.994
		L43.812,60.338z"/>
	<path fill="#989898" d="M42.633,58.541c0.221,0.303,0.432,0.611,0.637,0.926l0.73-0.73c-0.207-0.312-0.422-0.617-0.643-0.918
		L42.633,58.541z"/>
	<path fill="#989898" d="M44.841,62.286c0.167,0.358,0.325,0.721,0.476,1.088l0.771-0.772c-0.154-0.363-0.316-0.721-0.488-1.074
		L44.841,62.286z"/>
	<path fill="#989898" d="M45.703,64.398c0.138,0.391,0.263,0.785,0.379,1.185l0.809-0.81c-0.123-0.392-0.258-0.778-0.399-1.162
		L45.703,64.398z"/>
	<path fill="#989898" d="M41.312,56.883c0.244,0.279,0.479,0.562,0.711,0.854l0.72-0.719c-0.231-0.289-0.47-0.572-0.716-0.851
		L41.312,56.883z"/>
	<path fill="#989898" d="M46.377,66.703c0.102,0.428,0.189,0.859,0.268,1.296l0.862-0.862c-0.088-0.426-0.188-0.847-0.299-1.264
		L46.377,66.703z"/>
	<path fill="#989898" d="M30.416,49.917c0.398,0.116,0.794,0.242,1.184,0.379l0.787-0.787c-0.383-0.143-0.771-0.276-1.162-0.401
		L30.416,49.917z"/>
	<path fill="#989898" d="M36.534,52.73c0.313,0.205,0.622,0.416,0.926,0.637l0.724-0.725c-0.301-0.221-0.607-0.435-0.918-0.643
		L36.534,52.73z"/>
	<path fill="#989898" d="M38.264,53.979c0.291,0.229,0.574,0.467,0.854,0.709l0.717-0.715c-0.277-0.244-0.562-0.482-0.85-0.714
		L38.264,53.979z"/>
	<path fill="#989898" d="M34.659,51.629c0.34,0.178,0.674,0.364,1.003,0.559L36.4,51.45c-0.325-0.197-0.656-0.388-0.993-0.569
		L34.659,51.629z"/>
	<path fill="#989898" d="M46.768,75.244c-0.093,0.648-0.213,1.29-0.358,1.921l1.272-1.272c0.096-0.588,0.168-1.183,0.221-1.783
		L46.768,75.244z"/>
	<path fill="#989898" d="M5.054,58.98c1.598-2.318,3.609-4.33,5.927-5.928l2.747-2.746c-1.366,0.647-2.659,1.422-3.868,2.305
		l-5.248,5.248c-0.883,1.209-1.657,2.502-2.305,3.869L5.054,58.98z"/>
	<path fill="#989898" d="M23.965,49.001l0.977-0.977C24.629,48.012,24.316,48,24,48c-0.205,0-0.408,0.01-0.612,0.016l-1.051,1.05
		C22.875,49.027,23.417,49.002,23.965,49.001z"/>
	<path fill="#989898" d="M46.827,69.23c0.058,0.473,0.104,0.949,0.131,1.432l0.933-0.932c-0.045-0.469-0.099-0.935-0.168-1.395
		L46.827,69.23z"/>
	<path fill="#989898" d="M7.363,87.855L6.648,88.57c0.254,0.267,0.515,0.525,0.781,0.781l0.714-0.716
		C7.877,88.383,7.617,88.122,7.363,87.855z"/>
	<path fill="#989898" d="M24.035,94.999l-0.977,0.978C23.371,95.988,23.684,96,24,96c0.205,0,0.408-0.011,0.611-0.016l1.052-1.051
		C25.125,94.973,24.583,94.998,24.035,94.999z"/>
	<path fill="#989898" d="M1.066,70.337l-1.051,1.052C0.01,71.592,0,71.795,0,72c0,0.316,0.012,0.629,0.024,0.941l0.977-0.977
		C1.002,71.417,1.028,70.875,1.066,70.337z"/>
	<path fill="#989898" d="M46.669,79.881c0.252-0.724,0.47-1.462,0.651-2.215l-1.454,1.455c-0.29,0.886-0.632,1.748-1.021,2.584
		L46.669,79.881z"/>
	<path fill="#989898" d="M28.001,49.355c0.437,0.076,0.868,0.166,1.296,0.267l0.83-0.83c-0.417-0.11-0.838-0.211-1.264-0.299
		L28.001,49.355z"/>
	<path fill="#989898" d="M40.637,56.145l0.715-0.715c-0.254-0.267-0.515-0.527-0.781-0.781l-0.715,0.716
		C40.122,55.617,40.383,55.877,40.637,56.145z"/>
	<path fill="#989898" d="M46.934,73.663l1.051-1.052C47.988,72.408,48,72.205,48,72c0-0.316-0.012-0.629-0.023-0.941l-0.978,0.977
		C46.998,72.583,46.973,73.125,46.934,73.663z"/>
	<path fill="#989898" d="M32.626,50.686c0.367,0.148,0.729,0.307,1.089,0.475l0.758-0.758c-0.354-0.172-0.711-0.336-1.074-0.489
		L32.626,50.686z"/>
	<path fill="#989898" d="M17.583,94.082c-0.399-0.116-0.794-0.241-1.184-0.379l-0.787,0.787c0.383,0.143,0.77,0.277,1.162,0.4
		L17.583,94.082z"/>
	<path fill="#989898" d="M13.341,92.371c-0.34-0.18-0.674-0.364-1.003-0.559l-0.739,0.737c0.326,0.197,0.657,0.388,0.994,0.569
		L13.341,92.371z"/>
	<path fill="#989898" d="M15.374,93.314c-0.368-0.148-0.73-0.308-1.088-0.475l-0.758,0.758c0.353,0.172,0.71,0.336,1.073,0.489
		L15.374,93.314z"/>
	<path fill="#989898" d="M9.736,90.021c-0.29-0.229-0.575-0.467-0.854-0.711l-0.716,0.717c0.278,0.244,0.562,0.482,0.851,0.715
		L9.736,90.021z"/>
	<path fill="#989898" d="M6.688,87.116c-0.243-0.278-0.48-0.563-0.71-0.853l-0.719,0.719c0.231,0.289,0.469,0.572,0.713,0.851
		L6.688,87.116z"/>
	<path fill="#989898" d="M11.466,91.27c-0.314-0.205-0.623-0.416-0.926-0.637l-0.724,0.725c0.301,0.222,0.607,0.437,0.919,0.644
		L11.466,91.27z"/>
	<path fill="#989898" d="M19.999,94.645c-0.436-0.076-0.868-0.166-1.296-0.268l-0.83,0.831c0.417,0.108,0.838,0.211,1.264,0.299
		L19.999,94.645z"/>
	<path fill="#989898" d="M25.339,49.042c0.481,0.028,0.958,0.074,1.433,0.131l0.895-0.895c-0.461-0.07-0.926-0.125-1.395-0.168
		L25.339,49.042z"/>
	<path fill="#989898" d="M43.391,86.139c0.883-1.209,1.656-2.504,2.305-3.869l-2.744,2.744c-1.6,2.322-3.614,4.338-5.938,5.938
		l-2.744,2.744c1.365-0.647,2.66-1.422,3.869-2.305L43.391,86.139z"/>
	<path fill="#989898" d="M29.165,94.408c-0.631,0.146-1.271,0.267-1.921,0.357l-1.137,1.137c0.603-0.053,1.197-0.125,1.785-0.223
		L29.165,94.408z"/>
	<path fill="#989898" d="M22.662,94.958c-0.482-0.026-0.958-0.073-1.432-0.131l-0.895,0.896c0.46,0.069,0.926,0.123,1.394,0.168
		L22.662,94.958z"/>
	<path fill="#989898" d="M33.705,92.846c-0.836,0.391-1.698,0.73-2.584,1.021l-1.455,1.454c0.753-0.182,1.491-0.399,2.215-0.651
		L33.705,92.846z"/>
	<path fill="#989898" d="M2.134,64.878c0.29-0.886,0.631-1.749,1.021-2.585L1.33,64.118c-0.251,0.723-0.47,1.462-0.652,2.215
		L2.134,64.878z"/>
	<path fill="#989898" d="M1.233,68.757c0.092-0.649,0.214-1.291,0.359-1.923l-1.273,1.273c-0.096,0.588-0.169,1.183-0.221,1.785
		L1.233,68.757z"/>
	<path fill="#989898" d="M1.173,74.771c-0.057-0.475-0.103-0.951-0.131-1.434L0.11,74.271c0.044,0.469,0.098,0.934,0.168,1.394
		L1.173,74.771z"/>
	<path fill="#989898" d="M5.367,85.46c-0.22-0.304-0.432-0.612-0.637-0.926L4,85.266c0.208,0.312,0.422,0.617,0.643,0.918
		L5.367,85.46z"/>
	<path fill="#989898" d="M18.834,49.592c0.632-0.146,1.272-0.267,1.923-0.359l1.135-1.134c-0.602,0.052-1.197,0.125-1.785,0.221
		L18.834,49.592z"/>
	<path fill="#989898" d="M14.293,51.156c0.835-0.391,1.698-0.732,2.585-1.021l1.455-1.455c-0.753,0.183-1.492,0.4-2.216,0.652
		L14.293,51.156z"/>
	<path fill="#989898" d="M4.188,83.662c-0.195-0.329-0.381-0.663-0.559-1.003L2.88,83.407c0.182,0.337,0.372,0.668,0.569,0.993
		L4.188,83.662z"/>
	<path fill="#989898" d="M1.623,77.297c-0.101-0.428-0.19-0.859-0.267-1.296l-0.862,0.862c0.088,0.426,0.189,0.847,0.299,1.264
		L1.623,77.297z"/>
	<path fill="#989898" d="M3.159,81.715c-0.167-0.357-0.325-0.722-0.475-1.089l-0.772,0.772c0.154,0.362,0.318,0.721,0.489,1.074
		L3.159,81.715z"/>
	<path fill="#989898" d="M2.296,79.6c-0.137-0.39-0.263-0.783-0.379-1.184l-0.809,0.809c0.124,0.393,0.258,0.779,0.4,1.162
		L2.296,79.6z"/>
</g>
<g>
	<path fill="#989898" d="M27.007,71.906c0-0.223-0.028-0.438-0.073-0.646l-3.579,3.579c0.208,0.046,0.423,0.073,0.645,0.073
		c0.369,0,0.718-0.076,1.045-0.198l1.766-1.765C26.932,72.624,27.007,72.273,27.007,71.906z"/>
	<path fill="#989898" d="M23.999,68.9c-0.268,0-0.523,0.045-0.771,0.113l-2.121,2.12c-0.066,0.248-0.113,0.505-0.113,0.772
		c0,0.273,0.049,0.533,0.117,0.785l3.675-3.674C24.534,68.949,24.273,68.9,23.999,68.9z"/>
	<path fill="#989898" d="M25.748,69.471l-4.184,4.184c0.217,0.302,0.485,0.562,0.796,0.767l4.154-4.155
		C26.311,69.955,26.05,69.688,25.748,69.471z"/>
	<path fill="#989898" d="M29.325,68.869c0.194,0.341,0.356,0.701,0.485,1.08l3.442-3.444c-0.317-0.2-0.642-0.397-0.976-0.589
		L29.325,68.869z"/>
	<path fill="#989898" d="M27.979,67.241c0.279,0.239,0.541,0.501,0.773,0.786l2.616-2.616c-0.345-0.181-0.697-0.347-1.052-0.511
		L27.979,67.241z"/>
	<path fill="#989898" d="M18.36,69.491c0.62-1.445,1.777-2.603,3.222-3.222l2.905-2.905c-0.163-0.007-0.325-0.032-0.488-0.032
		c-0.372,0-0.744,0.037-1.116,0.072l-11.599,11.6c0.278,0.227,0.567,0.455,0.873,0.689L18.36,69.491z"/>
	<path fill="#989898" d="M11.556,68.777L8.163,72.17c0.152,0.158,0.418,0.424,0.786,0.777l7.354-7.354
		C14.506,66.568,12.884,67.715,11.556,68.777z"/>
	<path fill="#989898" d="M35.844,68.307l-6.378,6.379c-0.589,1.156-1.532,2.1-2.688,2.688l-3.263,3.264
		c0.162,0.008,0.323,0.031,0.485,0.031c0.373,0,0.746-0.037,1.118-0.072l11.599-11.599C36.438,68.77,36.148,68.541,35.844,68.307z"
		/>
	<path fill="#989898" d="M21.203,63.671c-0.769,0.175-1.524,0.419-2.269,0.705l-9.252,9.253c0.253,0.229,0.53,0.473,0.832,0.73
		L21.203,63.671z"/>
	<path fill="#989898" d="M30.085,72.65l4.95-4.95c-0.297-0.214-0.607-0.427-0.924-0.64l-4.036,4.037
		c0.034,0.266,0.06,0.533,0.06,0.809C30.135,72.159,30.115,72.406,30.085,72.65z"/>
	<path fill="#989898" d="M38.316,70.372c-0.252-0.229-0.528-0.474-0.83-0.731L26.798,80.328c0.769-0.176,1.522-0.419,2.269-0.704
		L38.316,70.372z"/>
	<path fill="#989898" d="M24.743,77.992c-0.244,0.029-0.492,0.05-0.744,0.05c-0.275,0-0.543-0.024-0.809-0.06l-2.28,2.279
		c0.433,0.108,0.87,0.188,1.308,0.256L24.743,77.992z"/>
	<path fill="#989898" d="M39.837,71.83c-0.153-0.158-0.419-0.426-0.786-0.777l-7.354,7.355c1.797-0.975,3.418-2.122,4.746-3.186
		L39.837,71.83z"/>
	<path fill="#989898" d="M22.042,77.718c-0.378-0.127-0.739-0.29-1.08-0.483l-2.289,2.289c0.378,0.15,0.758,0.293,1.145,0.42
		L22.042,77.718z"/>
	<path fill="#989898" d="M26.094,66.146c0.371,0.136,0.725,0.305,1.059,0.504l2.175-2.174c-0.378-0.15-0.757-0.293-1.144-0.42
		L26.094,66.146z"/>
	<path fill="#989898" d="M17.949,72.878c-0.05-0.317-0.084-0.64-0.084-0.972c0-0.18,0.012-0.357,0.027-0.533L12.965,76.3
		c0.296,0.216,0.608,0.429,0.922,0.64L17.949,72.878z"/>
	<path fill="#989898" d="M23.465,65.8c0.176-0.015,0.354-0.026,0.534-0.026c0.332,0,0.653,0.033,0.972,0.084l2.119-2.119
		c-0.434-0.108-0.869-0.189-1.309-0.256L23.465,65.8z"/>
	<path fill="#989898" d="M20.121,76.659c-0.286-0.233-0.548-0.493-0.788-0.774l-2.703,2.703c0.344,0.182,0.697,0.348,1.052,0.51
		L20.121,76.659z"/>
	<path fill="#989898" d="M18.744,75.061c-0.201-0.334-0.37-0.688-0.504-1.059l-3.494,3.493c0.319,0.2,0.642,0.397,0.975,0.589
		L18.744,75.061z"/>
</g>
</svg>
