<?xml version="1.0" encoding="utf-8"?>
<!-- Generator: Adobe Illustrator 16.0.0, SVG Export Plug-In . SVG Version: 6.00 Build 0)  -->
<!DOCTYPE svg PUBLIC "-//W3C//DTD SVG 1.1//EN" "http://www.w3.org/Graphics/SVG/1.1/DTD/svg11.dtd">
<svg version="1.1" id="Layer_1" xmlns="http://www.w3.org/2000/svg" xmlns:xlink="http://www.w3.org/1999/xlink" x="0px" y="0px"
	 width="32px" height="32px" viewBox="0 0 32 32" enable-background="new 0 0 32 32" xml:space="preserve">
<path fill="#FFFFFF" d="M16,0C7.163,0,0,7.163,0,16c0,8.836,7.163,16,16,16c8.836,0,16-7.164,16-16C32,7.163,24.836,0,16,0z
	 M16,2.081c7.675,0,13.919,6.244,13.919,13.919c0,2.691-0.771,5.205-2.099,7.336c-1.17-0.744-3.283-1.461-5.164-1.943
	c-1.441-0.371-2.652-1.199-2.652-1.199c-0.178-0.102-0.025-1.021-0.025-1.021l-1.02-0.153c0-0.076-0.076-1.198-0.076-1.198
	c1.071-0.356,0.96-2.466,0.96-2.466c0.681,0.374,1.122-1.292,1.122-1.292c0.807-2.316-0.398-2.177-0.398-2.177
	c0.382-1.734,0-4.268,0-4.268c-0.537-4.693-8.788-3.214-7.551-1.734c-2.933-0.816-1.913,4.744-1.913,4.744l0.511,1.377
	c-1.003,0.646-0.307,1.428-0.272,2.329c0.05,1.33,0.868,1.055,0.868,1.055c0.051,2.194,1.139,2.482,1.139,2.482
	c0.204,1.378,0,1.259,0,1.259h-0.893c0.043,0.349-0.076,0.935-0.076,0.935c-1.142,0.505-1.385,0.8-2.517,1.292
	c-2.188,0.953-4.982,1.973-4.982,1.973c-0.214,0.056-0.403,0.126-0.572,0.207C2.901,21.363,2.081,18.776,2.081,16
	C2.081,8.325,8.325,2.081,16,2.081z"/>
</svg>
