<?xml version="1.0" encoding="UTF-8" standalone="no"?>
<svg width="16px" height="16px" viewBox="0 0 16 16" version="1.1" xmlns="http://www.w3.org/2000/svg" xmlns:xlink="http://www.w3.org/1999/xlink" xmlns:sketch="http://www.bohemiancoding.com/sketch/ns">
    <title>info-blue</title>
    <description>Created with Sketch (http://www.bohemiancoding.com/sketch)</description>
    <defs></defs>
    <g id="Page 1" stroke="none" stroke-width="1" fill="none" fill-rule="evenodd">
        <g id="Layer_1" fill="#088CCC">
            <path d="M7.99862955,0.0217901499 C3.59023555,0.0217901499 0.0169593148,3.59506638 0.0169593148,8.00383726 C0.0169593148,12.4111692 3.59023555,15.9859186 7.99862955,15.9859186 C12.4063041,15.9859186 15.9795803,12.4111692 15.9795803,8.00383726 C15.9795803,3.59506638 12.4063041,0.0217901499 7.99862955,0.0217901499 L7.99862955,0.0217901499 Z M6.70660385,12.7289079 C6.18703212,12.7289079 5.82632976,12.4842141 5.82632976,11.9366852 C5.82632976,11.2428951 6.31719058,10.0597859 6.41867238,9.81509208 L7.4279743,7.27424411 C7.52866809,7.01464668 7.39926338,6.8848651 7.28363169,6.8848651 C6.7498758,6.8848651 6.05649679,8.14112206 5.79724197,8.14112206 C5.69579443,8.14112206 5.61000428,8.039606 5.61000428,7.95313062 C5.61000428,7.6920257 6.24407709,7.08628694 6.43206852,6.899803 C7.00985011,6.35223983 7.75993148,5.93151178 8.59802998,5.93151178 C9.21795289,5.93151178 9.8819015,6.30749465 9.36267238,7.70840257 L8.32270664,10.5222441 C8.23691649,10.7385696 8.07838972,11.0996831 8.07838972,11.3309465 C8.07838972,11.4308865 8.13474946,11.5323683 8.25068951,11.5323683 C8.68375161,11.5323683 9.4774818,10.3044454 9.68037687,10.3044454 C9.75201713,10.3044454 9.85267666,10.3924283 9.85267666,10.5222099 C9.85277944,10.94006 8.16424839,12.7289079 6.70660385,12.7289079 L6.70660385,12.7289079 Z M9.1896531,5.41379015 C8.59802998,5.41379015 8.20714347,5.02290364 8.20714347,4.43059529 C8.20714347,3.79652248 8.75542612,3.27729336 9.39107495,3.27729336 C9.96847966,3.27729336 10.3861927,3.66670664 10.3861927,4.25750749 C10.3861585,4.92292934 9.83859529,5.41379015 9.1896531,5.41379015 L9.1896531,5.41379015 Z M9.1896531,5.41379015" id="Shape"></path>
        </g>
    </g>
</svg>