<?xml version="1.0" encoding="UTF-8" standalone="no"?>
<svg width="32px" height="32px" viewBox="0 0 32 32" version="1.1" xmlns="http://www.w3.org/2000/svg" xmlns:xlink="http://www.w3.org/1999/xlink" xmlns:sketch="http://www.bohemiancoding.com/sketch/ns">
    <title>tooth-white</title>
    <description>Created with Sketch (http://www.bohemiancoding.com/sketch)</description>
    <defs></defs>
    <g id="Page 1" stroke="none" stroke-width="1" fill="none" fill-rule="evenodd">
        <g id="Layer_1" fill="#FFFFFF">
            <path d="M16,0.666666667 C24.4546667,0.666666667 31.3333333,7.54533333 31.3333333,16 C31.3333333,24.4546667 24.4546667,31.3333333 16,31.3333333 C7.54533333,31.3333333 0.666666667,24.4546667 0.666666667,16 C0.666666667,7.54533333 7.54533333,0.666666667 16,0.666666667 L16,0.666666667 Z M16,0 C7.16333333,0 0,7.16333333 0,16 C0,24.836 7.16333333,32 16,32 C24.836,32 32,24.836 32,16 C32,7.16333333 24.836,0 16,0 L16,0 L16,0 Z M16,0" id="Shape"></path>
            <path d="M16.0006667,16.88 C17.5966667,16.88 18.3366667,18.092 18.492,19.812 C18.5293333,20.222 18.4906667,20.824 18.438,21.5193333 C18.2593333,23.828 18.0526667,26.6666667 19.5913333,26.6666667 C20.8913333,26.6666667 21.5593333,24.172 21.9446667,21.328 C22.318,18.5113333 21.9226667,17.1106667 22.1166667,15.8606667 C22.4873333,13.492 24.5533333,11.368 23.9153333,8.34733333 C23.5613333,6.672 22.6386667,5.88466667 21.7246667,5.55333333 C19.62,4.788 18.262,6.26266667 16.0006667,6.26266667 C13.7393333,6.26266667 12.38,4.788 10.2746667,5.55333333 C9.36133333,5.88466667 8.43933333,6.67266667 8.084,8.34733333 C7.446,11.3673333 9.51333333,13.4906667 9.884,15.8606667 C10.078,17.1106667 9.68333333,18.512 10.0553333,21.328 C10.4413333,24.172 11.11,26.6666667 12.4106667,26.6666667 C13.9473333,26.6666667 13.742,23.828 13.5626667,21.5193333 C13.5093333,20.824 13.4713333,20.2253333 13.508,19.812 C13.6626667,18.0926667 14.4133333,16.88 16.0006667,16.88 L16.0006667,16.88 Z M16.0006667,16.88" id="Shape"></path>
        </g>
    </g>
</svg>